<?xml version="1.0" standalone="no"?>
<!DOCTYPE svg PUBLIC "-//W3C//DTD SVG 20010904//EN"
 "http://www.w3.org/TR/2001/REC-SVG-20010904/DTD/svg10.dtd">
<svg version="1.0" xmlns="http://www.w3.org/2000/svg"
 width="2000.000000pt" height="2000.000000pt" viewBox="0 0 2000.000000 2000.000000"
 preserveAspectRatio="xMidYMid meet">
<metadata>
Created by potrace 1.11, written by Peter Selinger 2001-2013
</metadata>
<g transform="translate(0.000000,2000.000000) scale(0.100000,-0.100000)"
fill="#000000" stroke="none">
<path d="M9688 19994 c-4 -3 -48 -7 -100 -8 -51 -1 -99 -5 -105 -9 -8 -5 -13
-3 -13 3 0 8 -7 9 -17 5 -10 -4 -63 -9 -118 -11 -55 -3 -107 -7 -115 -11 -8
-3 -49 -6 -90 -8 -41 -1 -75 -4 -75 -5 0 -1 -18 -3 -40 -5 -83 -7 -161 -15
-195 -21 -19 -3 -53 -7 -75 -9 -22 -2 -53 -6 -70 -9 -16 -2 -52 -7 -80 -11
-27 -4 -56 -12 -64 -19 -12 -9 -13 -8 -7 3 6 10 4 12 -10 7 -22 -6 -79 -17
-114 -21 -14 -1 -36 -5 -50 -8 -37 -9 -92 -18 -117 -20 -13 0 -23 -3 -23 -6 0
-4 -21 -7 -48 -9 -26 -1 -48 -6 -50 -11 -2 -5 -12 -7 -22 -4 -11 3 -20 1 -20
-4 0 -5 -15 -8 -32 -8 -18 1 -37 -1 -43 -4 -5 -3 -18 -7 -27 -8 -34 -5 -63
-12 -63 -13 0 -3 -39 -10 -67 -13 -16 -1 -28 -6 -28 -10 0 -5 -9 -5 -20 -2
-11 3 -20 2 -20 -3 0 -5 -6 -9 -12 -10 -7 0 -24 -3 -38 -7 -14 -3 -37 -8 -51
-9 -14 -2 -30 -6 -36 -9 -5 -3 -25 -9 -43 -12 -18 -3 -36 -8 -40 -10 -3 -2
-17 -6 -31 -9 -13 -3 -38 -9 -56 -15 -17 -5 -34 -7 -37 -3 -3 3 -6 0 -6 -6 0
-6 -7 -9 -15 -6 -8 4 -15 1 -15 -6 0 -6 -4 -9 -9 -6 -5 3 -27 -1 -50 -9 -23
-8 -43 -14 -46 -15 -3 0 -7 -1 -10 -1 -3 -1 -9 -3 -15 -4 -5 -1 -12 -4 -15 -5
-6 -3 -6 -3 -55 -14 -19 -5 -39 -11 -45 -14 -12 -7 -23 -11 -65 -19 -16 -3
-30 -9 -30 -14 0 -5 -3 -8 -7 -7 -14 3 -78 -14 -90 -24 -7 -6 -13 -8 -13 -5 0
3 -17 -1 -37 -10 -21 -8 -38 -15 -38 -13 0 1 -13 -3 -28 -9 -15 -6 -40 -14
-55 -17 -15 -4 -35 -13 -46 -20 -10 -7 -24 -10 -31 -8 -7 3 -16 0 -20 -5 -3
-6 -11 -9 -16 -6 -5 4 -9 2 -9 -2 0 -5 -21 -15 -47 -22 -27 -8 -53 -18 -59
-23 -7 -5 -16 -8 -20 -7 -5 1 -31 -7 -57 -19 -27 -12 -51 -22 -53 -22 -3 0
-24 -8 -47 -19 -48 -21 -79 -33 -89 -36 -5 -2 -11 -4 -15 -5 -5 -1 -11 -2 -15
-1 -5 0 -8 -4 -8 -9 0 -6 -7 -10 -15 -10 -8 0 -23 -4 -33 -10 -24 -13 -176
-78 -187 -80 -3 0 -26 -11 -52 -25 -26 -13 -50 -22 -54 -19 -4 2 -10 -3 -13
-12 -3 -8 -10 -12 -16 -9 -5 3 -10 1 -10 -4 0 -6 -3 -10 -7 -9 -5 1 -26 -7
-48 -17 -22 -10 -43 -17 -47 -17 -5 1 -8 -3 -8 -8 0 -6 -6 -10 -14 -10 -8 0
-41 -15 -74 -34 -33 -19 -63 -32 -66 -28 -3 3 -6 -1 -6 -8 0 -7 -3 -11 -6 -7
-3 3 -24 -5 -45 -19 -21 -13 -45 -24 -52 -24 -7 0 -17 -4 -22 -9 -9 -8 -38
-24 -160 -90 -16 -9 -33 -20 -36 -24 -3 -5 -10 -9 -15 -9 -18 -1 -54 -21 -54
-30 0 -5 -4 -6 -10 -3 -5 3 -10 1 -10 -5 0 -6 -4 -9 -9 -6 -4 3 -21 -6 -37
-19 -16 -14 -33 -24 -39 -22 -5 2 -18 -4 -27 -13 -10 -9 -31 -23 -46 -31 -42
-21 -106 -63 -114 -74 -4 -5 -8 -6 -8 -1 0 5 -8 2 -18 -7 -10 -10 -22 -14 -25
-10 -4 3 -7 1 -7 -5 0 -11 -52 -44 -66 -42 -3 1 -14 -8 -23 -19 -10 -11 -20
-18 -23 -16 -3 3 -17 -6 -31 -19 -14 -13 -28 -22 -30 -20 -2 2 -15 -6 -29 -18
-14 -13 -32 -24 -39 -26 -8 -2 -19 -10 -25 -17 -6 -8 -14 -12 -17 -8 -4 3 -7
1 -7 -5 0 -7 -7 -12 -15 -12 -8 0 -15 -4 -15 -10 0 -5 -5 -10 -11 -10 -6 0
-17 -6 -24 -12 -33 -30 -45 -38 -53 -38 -5 0 -21 -11 -35 -24 -14 -13 -27 -22
-29 -20 -2 2 -19 -10 -37 -26 -18 -17 -35 -30 -38 -30 -2 0 -15 -8 -28 -17
-12 -10 -33 -25 -45 -33 -12 -8 -28 -21 -36 -27 -7 -7 -17 -13 -23 -13 -6 0
-11 -4 -11 -10 0 -5 -12 -16 -27 -24 -16 -8 -41 -26 -57 -40 -16 -14 -32 -26
-35 -26 -3 0 -22 -15 -42 -33 -20 -17 -47 -39 -59 -47 -20 -14 -30 -22 -85
-68 -11 -9 -40 -33 -65 -52 -25 -19 -55 -45 -67 -58 -13 -13 -23 -20 -23 -16
0 4 -11 -4 -23 -17 -13 -13 -48 -44 -77 -69 -30 -25 -69 -59 -87 -77 -18 -18
-33 -30 -33 -28 0 2 -14 -9 -30 -25 -17 -17 -35 -30 -41 -30 -6 0 -7 -4 -4
-10 3 -5 2 -10 -3 -10 -19 0 -502 -471 -502 -490 0 -5 -7 -10 -15 -10 -8 0
-15 -4 -15 -8 0 -5 -28 -38 -62 -74 -93 -96 -201 -217 -220 -247 -10 -14 -18
-21 -18 -16 0 6 -8 -1 -18 -15 -9 -14 -26 -36 -37 -49 -22 -25 -43 -50 -95
-112 -19 -23 -50 -59 -69 -80 -18 -22 -30 -39 -26 -39 5 0 -1 -8 -11 -17 -32
-30 -94 -111 -94 -123 0 -6 -4 -9 -9 -5 -5 3 -12 -4 -16 -15 -3 -11 -11 -20
-16 -20 -6 0 -8 -4 -5 -9 4 -5 2 -11 -2 -13 -7 -3 -73 -87 -127 -162 -11 -15
-30 -39 -42 -54 -12 -14 -20 -29 -17 -33 2 -5 -5 -13 -16 -19 -11 -6 -20 -17
-20 -25 0 -7 -3 -15 -8 -17 -4 -1 -25 -30 -47 -63 -21 -33 -44 -65 -50 -72
-29 -34 -35 -43 -35 -51 0 -4 -9 -18 -20 -30 -12 -12 -18 -22 -15 -22 3 0 -10
-21 -30 -46 -19 -26 -35 -53 -35 -60 0 -8 -4 -14 -8 -14 -4 0 -32 -41 -62 -90
-30 -50 -63 -103 -72 -118 -35 -55 -39 -62 -31 -62 4 0 0 -6 -9 -12 -8 -7 -28
-38 -44 -68 -16 -30 -31 -57 -34 -60 -3 -3 -11 -16 -18 -29 -30 -52 -55 -98
-75 -136 -12 -22 -26 -46 -31 -54 -6 -7 -11 -20 -13 -29 -1 -9 -7 -18 -12 -20
-6 -2 -11 -10 -11 -18 0 -8 -5 -14 -10 -14 -6 0 -9 -4 -8 -8 4 -9 -44 -106
-54 -110 -5 -2 -8 -12 -8 -23 0 -10 -5 -19 -12 -19 -6 0 -8 -3 -5 -7 4 -3 -1
-15 -10 -26 -10 -10 -17 -21 -16 -23 4 -9 -10 -44 -18 -44 -5 0 -9 -4 -9 -10
0 -5 -25 -62 -56 -127 -32 -65 -57 -124 -57 -130 0 -7 -3 -13 -6 -13 -3 0 -17
-27 -31 -60 -14 -33 -29 -60 -33 -60 -5 0 -6 -4 -2 -10 3 -5 1 -17 -4 -27 -16
-30 -63 -128 -61 -128 1 0 -5 -18 -14 -39 -9 -22 -19 -50 -22 -63 -4 -13 -11
-23 -16 -23 -6 0 -8 -7 -5 -15 4 -8 2 -17 -3 -20 -9 -6 -45 -106 -42 -117 1
-5 -2 -8 -8 -8 -5 0 -10 -6 -10 -14 0 -7 -9 -35 -19 -62 -25 -63 -34 -88 -35
-94 -1 -3 -4 -9 -7 -15 -8 -13 -23 -68 -21 -77 1 -5 -2 -8 -8 -8 -6 0 -9 -3
-8 -7 3 -14 -26 -98 -37 -105 -5 -4 -7 -8 -3 -8 4 0 3 -12 -3 -27 -6 -16 -12
-35 -14 -43 -2 -8 -10 -34 -19 -57 -8 -24 -13 -43 -10 -43 2 0 -2 -13 -10 -29
-9 -16 -12 -31 -9 -35 4 -3 1 -6 -4 -6 -6 0 -10 -8 -8 -17 1 -10 -1 -22 -5
-28 -4 -5 -11 -23 -15 -40 -12 -45 -12 -45 -14 -47 -2 -2 -4 -13 -6 -24 -3
-12 -10 -34 -16 -50 -6 -16 -13 -38 -14 -49 -3 -22 -12 -59 -15 -62 -2 -2 -4
-7 -5 -13 -1 -5 -4 -13 -5 -17 -1 -5 -3 -12 -5 -18 -1 -5 -3 -12 -4 -15 -5
-11 -12 -46 -13 -67 0 -13 -5 -23 -10 -23 -6 0 -8 -7 -4 -15 3 -8 2 -15 -2
-15 -4 0 -8 -8 -9 -17 -1 -10 -4 -31 -8 -48 -4 -16 -8 -37 -10 -45 -1 -8 -8
-35 -15 -60 -6 -25 -14 -56 -17 -70 -4 -22 -14 -68 -29 -135 -5 -18 -10 -49
-19 -100 -2 -11 -9 -42 -15 -70 -6 -27 -13 -63 -16 -80 -2 -16 -8 -52 -14 -80
-10 -47 -13 -63 -25 -152 -9 -59 -14 -95 -20 -128 -8 -47 -13 -85 -20 -144 -3
-30 -8 -58 -11 -62 -2 -4 -7 -41 -10 -81 -3 -40 -7 -91 -10 -113 -6 -49 -11
-100 -18 -185 -4 -36 -8 -87 -11 -115 -3 -27 -6 -84 -8 -125 -2 -42 -6 -81
-10 -87 -4 -6 -1 -13 5 -16 10 -3 10 -8 2 -18 -5 -8 -10 -56 -10 -106 1 -51
-1 -93 -4 -93 -3 0 -5 -130 -5 -289 -1 -199 2 -288 10 -283 7 4 7 1 -1 -9 -5
-8 -9 -25 -8 -39 2 -14 5 -83 8 -155 6 -149 22 -410 25 -410 2 0 12 -125 14
-182 1 -24 4 -43 7 -43 3 0 5 -17 6 -38 0 -20 4 -64 8 -97 4 -33 9 -76 12 -95
2 -19 6 -51 10 -70 3 -19 6 -58 7 -87 1 -28 5 -49 8 -47 6 3 10 -21 24 -131 5
-42 15 -96 22 -125 3 -14 7 -36 9 -50 1 -14 5 -38 8 -55 3 -16 8 -46 11 -65 3
-19 8 -42 11 -50 3 -8 8 -26 10 -40 3 -14 9 -50 15 -80 7 -30 13 -62 14 -70 2
-8 4 -15 5 -15 2 0 5 -14 13 -60 13 -66 18 -91 24 -110 7 -22 12 -40 17 -70 2
-11 6 -27 9 -35 3 -8 9 -28 13 -45 10 -41 11 -45 14 -47 1 -2 3 -12 4 -23 2
-11 9 -40 17 -65 7 -25 14 -49 15 -55 1 -5 3 -13 4 -17 3 -10 5 -16 15 -53 16
-64 46 -161 54 -175 4 -8 7 -23 5 -32 -1 -10 2 -18 7 -18 6 0 9 -6 8 -12 -1
-7 0 -20 4 -28 10 -28 30 -95 28 -98 -1 -1 6 -16 14 -32 9 -17 13 -30 9 -30
-4 0 -1 -7 6 -15 7 -8 9 -15 5 -15 -4 0 -2 -6 4 -14 6 -8 11 -18 10 -22 -1 -5
4 -22 11 -39 7 -16 14 -34 16 -40 7 -29 69 -201 74 -205 3 -3 6 -14 8 -24 2
-10 14 -43 27 -73 13 -29 25 -57 26 -61 1 -4 6 -18 12 -32 12 -29 11 -27 21
-62 5 -16 13 -28 19 -28 6 0 8 -3 4 -6 -3 -4 0 -19 9 -35 8 -16 15 -32 15 -36
0 -8 13 -39 46 -110 10 -21 17 -40 18 -43 0 -3 10 -25 22 -50 67 -142 77 -166
75 -172 -1 -5 3 -8 9 -8 5 0 8 -4 4 -9 -3 -5 2 -16 10 -25 9 -8 15 -18 15 -21
-1 -16 13 -55 21 -55 5 0 9 -6 9 -14 0 -8 7 -22 16 -30 8 -9 12 -16 8 -16 -3
0 0 -8 7 -17 12 -14 12 -16 -1 -9 -11 6 -11 4 1 -6 9 -7 20 -24 24 -38 4 -14
11 -27 15 -30 5 -3 10 -14 12 -25 1 -11 6 -22 10 -25 16 -12 67 -123 61 -133
-3 -5 -1 -7 4 -4 10 7 28 -20 25 -35 -1 -5 2 -8 7 -8 5 0 12 -14 16 -30 4 -17
10 -30 14 -30 5 0 16 -18 26 -40 10 -22 22 -40 27 -40 4 0 8 -7 8 -15 0 -15
19 -55 31 -65 3 -3 16 -25 30 -50 13 -25 26 -47 29 -50 3 -3 17 -26 30 -53 14
-26 28 -47 31 -47 4 0 12 -15 20 -32 7 -18 16 -35 20 -38 3 -3 21 -31 39 -62
17 -32 36 -58 42 -58 5 0 6 -5 3 -10 -3 -6 1 -13 9 -16 9 -3 14 -9 12 -13 -7
-10 70 -122 78 -113 4 4 6 2 4 -3 -3 -11 41 -88 54 -93 4 -2 8 -10 8 -17 0 -7
3 -15 8 -17 10 -4 52 -65 52 -75 0 -5 9 -15 19 -23 11 -7 18 -17 16 -20 -3 -4
4 -15 15 -25 11 -10 20 -24 20 -32 0 -7 7 -16 15 -19 8 -4 15 -12 15 -19 0 -7
3 -15 8 -17 4 -1 29 -33 55 -70 26 -36 54 -74 63 -82 8 -9 13 -16 9 -16 -3 0
7 -12 22 -28 16 -15 30 -31 31 -37 2 -5 13 -21 25 -35 12 -14 33 -41 47 -60
24 -34 44 -60 65 -84 6 -6 30 -36 55 -66 47 -57 66 -80 97 -116 10 -12 36 -43
58 -70 22 -26 55 -63 73 -82 17 -19 32 -36 32 -38 0 -2 23 -27 50 -55 28 -28
50 -52 50 -54 0 -17 629 -645 646 -645 1 0 23 -19 47 -43 84 -80 170 -152 183
-155 8 -2 12 -8 9 -13 -4 -5 -2 -9 4 -9 5 0 31 -20 58 -45 26 -25 52 -45 56
-45 4 0 26 -18 47 -40 22 -23 40 -38 40 -36 0 5 24 -13 54 -39 13 -12 137
-108 186 -145 19 -14 57 -44 86 -67 29 -23 54 -39 57 -36 3 3 12 -4 19 -16 7
-12 17 -21 21 -21 5 0 27 -14 48 -31 21 -17 39 -28 39 -24 0 3 11 -6 25 -21
14 -15 25 -24 25 -21 0 5 133 -85 168 -113 6 -6 12 -8 12 -5 0 4 6 0 14 -7 14
-14 25 -21 96 -67 183 -117 223 -142 233 -144 7 -1 17 -9 24 -17 7 -8 13 -11
13 -7 0 4 10 -1 22 -13 12 -11 27 -20 34 -20 6 0 17 -7 24 -15 7 -8 16 -12 21
-9 5 3 9 2 9 -3 0 -4 21 -19 48 -33 26 -13 49 -27 52 -30 5 -5 49 -29 155 -84
33 -17 62 -34 65 -37 3 -3 37 -21 75 -40 39 -19 72 -37 73 -41 2 -5 12 -8 22
-8 9 0 23 -7 30 -15 7 -8 16 -12 21 -9 5 3 9 1 9 -4 0 -5 18 -15 40 -22 22 -7
40 -17 40 -22 0 -4 9 -8 21 -8 11 0 18 -4 15 -8 -2 -4 5 -9 16 -9 12 -1 24 -6
27 -11 7 -10 43 -26 54 -23 4 1 15 -6 23 -14 9 -8 20 -13 25 -10 5 4 9 1 9 -5
0 -6 5 -8 10 -5 6 3 10 1 10 -5 0 -6 4 -8 10 -5 6 3 10 1 10 -4 0 -6 3 -10 8
-9 8 1 37 -10 120 -48 31 -14 71 -32 87 -39 17 -7 48 -21 70 -31 22 -9 45 -18
50 -20 6 -1 28 -10 50 -20 22 -10 43 -18 47 -18 3 -1 9 -4 13 -8 4 -4 13 -4
21 -1 8 3 14 0 14 -5 0 -9 25 -22 55 -28 6 -1 28 -10 50 -19 22 -10 48 -17 59
-16 11 2 16 -2 12 -8 -5 -7 2 -11 18 -11 14 0 28 -4 31 -10 3 -5 17 -10 30
-10 13 0 26 -4 29 -9 3 -5 16 -11 28 -14 13 -3 50 -15 83 -27 33 -12 67 -24
75 -25 8 -2 45 -15 83 -29 37 -14 67 -22 67 -19 0 3 6 0 13 -6 8 -6 17 -8 20
-4 4 3 7 1 7 -6 0 -7 4 -10 10 -6 5 3 25 -1 45 -9 19 -8 35 -13 35 -11 0 2 16
-3 35 -11 19 -8 35 -11 35 -8 0 4 6 2 12 -4 7 -5 27 -12 45 -15 17 -3 37 -8
42 -12 6 -3 19 -8 28 -10 10 -2 45 -11 77 -20 33 -8 67 -17 75 -19 9 -2 23 -6
31 -9 13 -5 63 -18 125 -32 11 -3 32 -7 47 -10 15 -3 38 -9 51 -14 14 -6 28
-7 31 -4 3 3 11 1 18 -4 7 -6 21 -9 31 -8 9 2 17 0 17 -4 0 -5 13 -8 29 -9 16
0 48 -6 72 -13 24 -6 53 -13 64 -14 11 -1 27 -5 35 -8 13 -5 44 -10 115 -21
11 -2 20 -4 20 -6 0 -1 14 -3 30 -6 17 -2 39 -5 50 -7 11 -2 40 -7 65 -11 25
-4 59 -10 75 -13 17 -3 44 -7 60 -8 17 -2 30 -4 30 -5 0 -2 25 -7 85 -15 30
-4 69 -9 85 -11 17 -2 48 -6 70 -8 22 -2 54 -6 70 -9 17 -4 49 -8 73 -9 23 -1
42 -4 42 -7 0 -4 24 -7 53 -7 47 -1 114 -7 247 -20 248 -24 1005 -40 993 -21
-4 6 -1 7 7 2 7 -4 43 -7 79 -5 36 1 103 3 148 4 46 0 83 3 83 6 0 3 33 5 73
5 39 0 84 3 99 7 15 3 30 2 34 -3 3 -5 11 -6 17 -2 16 10 68 16 232 28 22 1
40 3 40 4 0 2 116 13 153 14 12 1 22 3 22 7 0 3 15 5 33 6 30 1 112 11 112 14
0 1 20 3 45 5 52 5 105 13 105 15 0 1 14 4 30 6 35 3 75 10 125 19 19 4 46 9
60 11 43 6 125 22 125 24 0 1 16 3 35 6 19 2 46 7 60 10 47 13 81 20 140 30
19 3 39 8 44 11 4 3 20 7 35 9 14 1 55 10 91 19 36 10 74 19 85 21 29 5 107
25 125 32 21 7 20 7 67 16 24 4 45 12 49 17 3 5 9 7 14 4 5 -3 18 -1 28 4 10
5 29 11 43 13 13 2 29 7 35 10 9 6 40 14 84 22 14 3 23 6 68 23 9 3 24 8 32
10 18 5 31 8 50 15 53 20 149 50 170 54 13 3 31 11 39 17 8 7 16 11 18 9 5 -5
167 49 173 57 3 4 12 6 20 6 8 -1 24 5 36 12 11 7 24 10 27 6 4 -3 7 -1 7 5 0
7 6 12 14 12 7 0 31 8 52 17 22 9 45 16 52 14 6 -1 12 3 12 9 0 6 6 10 13 8 6
-1 32 7 57 19 54 24 85 35 86 31 0 -2 8 3 17 10 9 8 21 11 27 7 5 -3 10 -1 10
4 0 6 7 11 15 11 8 0 15 4 15 8 0 5 6 9 13 9 17 0 231 95 235 104 2 5 10 5 18
2 8 -3 14 0 14 6 0 6 6 11 13 11 7 0 29 9 49 19 19 11 39 17 42 14 3 -4 6 -2
6 4 0 10 36 26 53 24 4 -1 7 4 7 11 0 6 3 8 6 5 4 -4 21 4 38 16 17 12 32 21
33 20 7 -6 113 48 113 57 0 6 5 8 10 5 6 -4 17 -2 24 5 22 18 166 90 166 83 0
-4 9 3 20 15 19 20 27 24 46 21 4 0 10 4 13 9 3 5 26 20 51 32 25 12 47 25 50
29 7 8 79 48 113 62 15 6 27 14 27 18 0 4 16 13 35 21 19 8 35 17 35 22 0 4 7
8 15 8 8 0 15 4 15 9 0 5 10 11 23 15 12 3 32 14 44 25 11 11 24 17 27 14 3
-4 6 -1 6 5 0 6 10 14 22 18 12 3 26 11 32 16 6 5 58 39 116 76 58 36 107 69
110 72 3 3 26 19 52 35 27 17 48 33 48 38 0 4 6 7 13 7 6 0 38 20 69 45 32 25
62 45 68 45 5 0 10 4 10 8 0 4 14 16 32 26 17 11 39 25 47 32 9 7 66 50 126
95 61 45 112 85 115 89 3 3 21 17 40 30 19 13 40 31 47 40 7 8 13 12 13 8 0
-3 16 9 35 28 20 19 39 34 43 34 4 0 28 19 54 43 25 23 55 49 65 57 114 91
189 160 185 172 -1 5 2 7 7 3 6 -3 28 12 51 35 22 22 44 40 49 40 5 0 11 7 14
15 4 8 24 27 46 43 22 16 39 31 38 33 -2 2 7 14 20 26 13 12 23 20 23 18 0 -7
367 364 455 460 44 47 98 106 120 130 22 24 54 59 70 80 17 20 47 55 68 78 21
23 48 55 60 70 12 16 36 44 52 63 48 54 55 63 55 67 0 2 19 25 43 51 23 26 42
51 42 54 1 7 28 40 67 83 10 10 15 19 10 19 -4 0 1 5 11 11 9 5 17 17 17 24 0
8 4 15 8 15 5 0 24 21 42 47 19 27 39 51 44 55 6 4 7 8 2 8 -4 0 2 9 15 20 13
10 20 19 16 20 -4 0 2 10 13 23 32 33 62 77 54 77 -4 0 -1 6 8 12 21 18 134
181 130 191 -1 4 2 7 6 7 9 0 62 77 62 90 0 5 3 10 8 12 11 5 62 83 62 96 0 7
4 12 8 12 5 0 21 22 36 50 15 27 31 52 37 55 5 4 7 11 4 16 -4 5 -2 9 4 9 5 0
20 20 32 45 12 25 26 45 31 45 4 0 8 7 8 15 0 8 9 24 20 35 11 11 18 20 15 20
-3 0 1 10 10 23 8 13 12 27 8 30 -3 4 1 7 11 7 9 0 15 4 11 10 -3 5 3 18 15
30 11 11 17 20 13 20 -3 0 1 8 10 18 8 9 16 22 16 27 1 6 7 17 14 25 7 8 14
20 16 25 12 33 26 55 34 55 6 0 7 3 4 6 -3 4 -1 16 5 28 7 11 11 24 10 29 -1
4 2 7 6 7 4 0 25 35 47 78 22 42 45 80 50 84 6 4 7 8 2 8 -4 0 4 18 18 40 14
22 22 40 19 40 -4 0 1 9 12 21 10 12 18 23 17 25 -4 9 10 44 18 44 5 0 9 4 9
9 0 6 27 67 60 136 33 69 60 128 60 130 0 5 58 133 76 167 8 14 14 33 14 42 0
9 5 16 12 16 6 0 8 3 5 6 -3 4 -1 16 5 28 7 11 13 23 14 26 0 3 7 19 13 37 7
18 12 35 12 38 -1 3 5 13 14 21 8 9 15 22 15 30 0 23 1 29 10 39 15 18 49 118
44 127 -3 4 2 8 10 8 10 0 13 6 10 15 -4 8 -2 21 4 28 6 7 18 35 27 62 9 28
20 59 25 70 13 30 24 69 22 78 -1 4 3 7 8 7 5 0 9 3 8 8 -3 13 26 97 37 104 5
4 7 8 2 8 -4 0 -1 16 7 35 9 20 15 38 15 40 0 3 12 45 27 93 15 48 27 93 27
100 0 6 4 12 9 12 4 0 8 11 8 24 0 14 4 27 9 31 6 3 8 14 6 25 -2 11 0 20 4
20 4 0 8 6 8 13 0 6 8 37 17 68 9 31 19 65 21 75 2 11 9 37 15 59 6 22 12 47
14 55 1 9 5 20 8 25 5 8 13 39 23 95 1 3 4 14 8 25 6 20 13 49 23 110 3 17 10
35 15 41 5 6 7 18 3 27 -3 8 0 18 5 22 6 3 9 10 6 15 -3 5 -2 18 3 27 6 10 12
36 15 58 7 51 17 96 23 106 2 5 7 32 10 61 3 29 9 57 12 62 3 6 7 24 8 40 1
17 7 54 13 81 12 55 18 90 26 150 3 22 7 51 10 65 3 14 8 45 11 70 3 25 8 59
11 75 3 17 6 44 8 60 1 17 3 30 4 30 1 0 3 21 5 47 2 26 8 54 15 62 8 9 8 16
2 20 -6 4 -8 12 -6 19 3 7 7 35 9 62 3 28 5 50 6 50 2 0 4 26 14 160 3 33 5
60 6 60 3 0 10 106 12 168 1 37 6 71 11 74 5 3 5 8 -2 12 -7 5 -8 18 -3 37 4
16 7 70 7 119 0 50 5 93 10 97 6 5 5 8 -3 8 -8 0 -10 5 -6 12 12 20 11 538 -1
538 -6 0 -7 3 0 8 15 10 19 46 5 37 -9 -6 -9 -2 -1 13 8 14 8 23 1 27 -8 5 -8
11 -1 19 6 7 8 16 5 19 -3 3 -7 53 -9 110 -1 58 -6 110 -9 116 -4 6 -1 11 6
11 8 0 9 3 3 8 -5 4 -11 41 -12 82 -1 41 -2 75 -3 75 -1 0 -3 23 -5 50 -1 28
-4 50 -5 50 -2 0 -11 111 -13 163 0 23 -3 42 -6 42 -4 0 -7 24 -7 53 -1 28 -4
69 -8 89 -3 20 -8 61 -11 90 -3 29 -7 62 -9 73 -11 57 -17 104 -18 138 -1 20
-4 37 -8 37 -4 0 -6 10 -5 23 1 12 0 26 -3 32 -3 5 -7 25 -8 45 -1 19 -3 35
-4 35 -2 0 -6 22 -14 72 -3 21 -8 49 -11 63 -3 14 -8 37 -10 52 -6 38 -24 138
-31 168 -7 30 -11 50 -23 110 -23 109 -42 196 -48 210 -3 8 -7 23 -8 33 -2 9
-4 18 -5 20 -3 3 -10 45 -12 75 -1 12 -5 22 -9 22 -4 0 -10 17 -14 38 -12 53
-11 53 -26 102 -7 25 -14 50 -15 55 -1 6 -3 13 -4 18 -3 9 -5 15 -15 52 -10
39 -45 156 -52 175 -8 20 -13 41 -16 65 -1 11 -6 23 -12 27 -5 4 -10 13 -10
20 -2 29 -18 88 -24 88 -4 0 -7 9 -8 20 -2 24 -43 141 -56 158 -5 6 -7 12 -3
12 5 0 -8 40 -34 105 -4 11 -13 36 -20 55 -7 19 -17 46 -22 60 -6 14 -14 34
-18 45 -50 129 -62 162 -64 171 -1 7 -8 19 -15 28 -7 9 -11 16 -7 16 4 0 -2
17 -13 38 -10 20 -20 42 -22 47 -1 6 -4 18 -7 28 -2 9 -9 17 -14 17 -5 0 -7 4
-4 8 3 5 -2 21 -10 36 -7 16 -14 35 -14 42 0 8 -4 14 -9 14 -4 0 -14 20 -21
45 -7 25 -16 45 -21 45 -4 0 -11 15 -14 33 -4 17 -13 39 -20 47 -7 8 -18 32
-25 53 -6 20 -16 37 -21 37 -5 0 -9 6 -9 13 0 18 -60 140 -72 148 -5 3 -9 8
-7 10 4 8 -14 54 -26 69 -8 8 -13 17 -13 20 0 8 -26 64 -32 70 -13 11 -75 146
-72 155 2 6 0 7 -4 2 -4 -4 -17 12 -29 35 -45 91 -137 252 -148 259 -5 3 -8
10 -8 15 1 5 -6 17 -14 27 -8 9 -15 24 -15 32 0 9 -7 18 -15 21 -8 4 -12 10
-9 15 3 5 0 9 -5 9 -6 0 -11 4 -11 9 0 5 -22 46 -50 90 -27 44 -50 85 -50 91
0 5 -4 10 -8 10 -4 0 -21 23 -37 50 -16 28 -33 50 -38 50 -4 0 -6 4 -3 8 3 5
-4 18 -14 30 -11 12 -20 26 -20 32 0 5 -4 10 -10 10 -5 0 -10 7 -10 15 0 8 -5
15 -11 15 -5 0 -8 4 -5 9 3 5 -1 14 -8 20 -8 7 -47 60 -87 119 -40 59 -76 109
-81 110 -4 2 -8 10 -8 18 0 8 -3 14 -8 14 -4 0 -18 18 -32 40 -14 22 -28 40
-32 40 -5 0 -8 5 -8 12 0 7 -12 22 -26 34 -14 13 -24 24 -22 27 4 5 -38 62
-68 94 -12 12 -24 26 -25 32 -5 11 -54 74 -85 107 -12 13 -24 27 -25 32 -4 10
-68 88 -106 128 -12 13 -20 24 -17 24 3 0 -5 11 -18 24 -13 13 -39 43 -58 66
-19 23 -50 57 -68 76 -19 19 -31 34 -28 34 3 0 -14 19 -37 43 -23 24 -87 92
-142 152 -156 169 -497 506 -631 622 -106 92 -150 131 -170 151 -13 12 -25 22
-27 22 -5 0 -68 54 -114 97 -12 12 -23 20 -23 17 0 -2 -14 9 -31 26 -17 16
-36 27 -42 23 -5 -3 -8 -2 -5 3 3 5 0 15 -8 22 -8 7 -14 10 -14 7 0 -3 -11 4
-25 17 -39 37 -54 48 -64 48 -5 0 -11 4 -13 8 -4 9 -138 117 -188 151 -19 13
-38 29 -42 35 -4 6 -8 7 -8 3 0 -8 -14 2 -55 41 -13 12 -27 22 -30 22 -8 0
-69 44 -73 53 -2 4 -10 7 -18 7 -8 0 -14 5 -14 10 0 6 -7 10 -15 10 -8 0 -15
5 -15 10 0 6 -7 10 -16 10 -8 0 -12 5 -9 10 3 6 1 10 -5 10 -6 0 -72 41 -147
90 -74 50 -139 90 -145 90 -5 0 -6 5 -3 10 4 6 3 9 -2 8 -10 -3 -112 54 -167
94 -21 15 -45 28 -53 28 -7 0 -13 5 -13 10 0 6 -7 10 -15 10 -8 0 -15 4 -15 8
0 5 -16 14 -35 22 -19 8 -35 17 -35 22 0 4 -6 8 -13 8 -7 0 -28 11 -47 23 -19
13 -69 41 -110 63 -41 21 -77 41 -80 44 -3 3 -41 23 -85 45 -44 22 -82 43 -83
48 -2 4 -8 5 -13 1 -5 -3 -9 0 -9 6 0 7 -6 10 -12 7 -7 -2 -21 5 -30 16 -10
11 -18 17 -18 12 0 -4 -7 -2 -15 5 -8 6 -19 9 -25 5 -5 -3 -10 -2 -10 4 0 6
-11 13 -25 17 -14 3 -25 10 -25 14 0 7 -21 16 -57 25 -7 2 -25 12 -41 24 -16
11 -32 18 -35 15 -3 -4 -13 1 -22 10 -9 9 -21 14 -26 11 -5 -4 -9 -1 -9 5 0 6
-4 8 -10 5 -5 -3 -10 -1 -10 5 0 6 -4 8 -10 5 -5 -3 -10 -1 -10 4 0 6 -3 10
-7 9 -5 -1 -26 7 -48 17 -22 10 -42 19 -45 20 -3 0 -27 11 -54 23 -27 12 -52
22 -57 22 -5 0 -9 5 -9 11 0 5 -5 7 -10 4 -6 -4 -17 -1 -25 5 -8 7 -15 9 -15
6 0 -4 -7 0 -16 8 -8 9 -21 16 -28 16 -8 0 -35 10 -62 22 -27 12 -54 23 -60
24 -6 1 -27 9 -45 17 -19 9 -61 26 -94 37 -33 12 -69 25 -80 30 -11 5 -47 19
-80 31 -57 19 -135 48 -180 65 -11 4 -25 6 -32 5 -6 -1 -14 3 -18 9 -3 5 -12
10 -20 10 -8 0 -26 5 -42 11 -15 6 -28 10 -28 9 0 -2 -17 5 -37 13 -20 8 -39
13 -42 9 -3 -3 -6 0 -6 7 0 7 -4 10 -9 7 -5 -4 -22 -1 -38 5 -15 6 -35 12 -43
14 -8 2 -35 10 -60 19 -25 8 -57 17 -72 20 -15 2 -32 7 -38 11 -10 6 -43 15
-70 19 -9 1 -20 5 -25 8 -12 8 -87 23 -97 20 -5 -1 -8 2 -8 7 0 6 -8 9 -17 9
-10 -1 -47 7 -83 17 -36 9 -75 19 -87 21 -12 2 -33 8 -47 14 -13 5 -27 6 -30
3 -3 -3 -11 -1 -18 4 -7 6 -21 9 -30 8 -10 -2 -18 0 -18 4 0 4 -15 8 -32 9
-18 1 -53 7 -78 15 -25 7 -55 13 -68 12 -12 -1 -22 2 -22 6 0 4 -17 9 -37 12
-21 3 -58 8 -83 12 -25 5 -53 8 -62 9 -10 0 -18 3 -18 6 0 5 -39 11 -87 13
-13 1 -23 3 -23 7 0 3 -10 6 -22 6 -58 4 -109 12 -115 17 -3 4 -27 7 -53 7
-26 0 -50 3 -54 7 -3 4 -23 8 -44 9 -46 3 -111 11 -177 20 -27 4 -65 8 -82 8
-18 0 -33 3 -33 6 0 3 -21 6 -48 7 -50 2 -161 11 -227 18 -22 3 -68 5 -102 6
-35 0 -65 5 -68 9 -3 5 -18 5 -34 0 -16 -4 -32 -5 -36 -2 -15 15 -825 22 -825
7 0 -5 -4 -4 -8 3 -5 7 -11 10 -14 6z m-2826 -2269 c24 -2 55 -7 70 -10 16 -3
40 -7 55 -9 48 -8 86 -16 163 -37 41 -11 82 -22 90 -24 32 -7 185 -67 197 -77
7 -6 13 -8 13 -4 0 3 16 -3 35 -14 20 -11 41 -20 48 -20 7 0 23 -9 37 -20 14
-11 32 -20 41 -20 9 0 22 -7 29 -15 7 -8 16 -12 21 -9 5 3 9 0 9 -6 0 -6 5 -8
10 -5 6 3 10 1 10 -5 0 -6 8 -14 18 -17 9 -4 34 -17 55 -30 20 -13 37 -20 37
-17 0 4 8 -2 18 -14 10 -11 25 -22 32 -24 8 -2 26 -13 40 -26 14 -12 34 -25
44 -28 11 -4 30 -18 43 -32 12 -14 23 -22 23 -19 0 6 7 1 60 -43 9 -8 32 -26
50 -40 18 -14 42 -33 54 -43 11 -10 43 -37 71 -60 27 -23 83 -75 124 -114 42
-40 78 -73 82 -73 4 0 11 -9 14 -20 3 -11 10 -20 15 -20 5 0 20 -11 34 -25 14
-14 23 -25 21 -25 -2 0 17 -22 43 -48 26 -27 65 -70 87 -96 22 -25 51 -59 65
-75 14 -16 41 -48 60 -72 19 -23 43 -51 53 -61 9 -10 17 -21 17 -25 0 -5 15
-24 33 -43 18 -19 41 -48 51 -65 10 -16 25 -37 33 -45 22 -24 79 -103 92 -128
7 -12 15 -20 19 -18 5 3 8 -4 9 -14 1 -11 13 -32 27 -47 15 -16 29 -36 32 -45
3 -10 10 -18 15 -18 5 0 9 -5 9 -11 0 -12 60 -103 72 -107 4 -2 8 -10 8 -18 0
-8 8 -24 18 -35 11 -10 25 -32 33 -47 8 -15 18 -30 24 -34 5 -4 6 -8 2 -8 -4
0 3 -15 17 -33 15 -19 26 -39 26 -44 0 -6 7 -16 15 -23 9 -7 14 -15 11 -17 -4
-4 31 -63 54 -90 5 -7 10 -17 10 -23 0 -6 7 -18 15 -27 8 -8 13 -19 10 -24 -4
-5 -2 -9 3 -9 5 0 19 -22 32 -50 13 -27 27 -50 32 -50 5 0 6 -5 3 -11 -4 -5 0
-18 8 -27 19 -22 128 -249 197 -412 18 -41 43 -98 56 -127 35 -76 47 -107 46
-115 -1 -5 3 -8 9 -8 5 0 8 -4 4 -9 -3 -5 -1 -12 5 -16 5 -3 10 -15 10 -26 0
-12 4 -17 11 -14 6 4 9 1 8 -6 -5 -24 33 -98 47 -92 8 3 11 9 8 14 -3 5 0 9 5
9 6 0 11 4 11 9 0 8 17 36 81 131 5 8 34 53 64 100 30 47 59 92 65 100 44 65
147 227 148 233 1 4 7 14 14 21 7 7 56 75 108 150 52 76 100 143 106 150 6 6
34 45 63 85 57 80 67 92 94 122 9 10 18 22 19 27 1 4 5 12 10 17 4 6 24 30 44
55 19 25 42 53 50 63 8 9 14 21 14 26 0 5 7 11 15 15 8 3 15 11 15 18 0 7 9
19 21 26 12 7 19 16 16 19 -3 3 10 20 28 39 19 19 31 34 28 34 -4 0 2 8 13 19
26 25 65 71 60 71 -2 0 10 15 27 34 49 53 57 64 57 77 0 7 3 9 7 6 3 -4 19 11
35 33 17 22 34 40 39 40 5 0 9 5 9 11 0 6 12 23 28 39 15 16 43 47 62 70 19
22 60 67 91 100 31 33 55 60 53 60 -2 0 21 24 51 54 30 30 55 59 55 65 0 6 7
11 15 11 8 0 15 4 15 8 0 7 143 152 255 259 22 20 39 41 37 46 -1 5 2 6 7 3 5
-4 18 5 30 19 11 15 23 27 28 28 4 1 7 5 6 10 -2 4 1 7 7 7 5 0 22 12 38 28
16 15 51 45 77 67 26 22 54 46 61 53 7 6 17 12 23 12 6 0 11 7 11 15 0 8 6 15
13 15 8 0 27 13 43 30 16 16 35 30 42 30 6 0 12 3 12 8 0 4 20 20 45 37 24 16
41 33 39 37 -3 5 -2 7 3 6 9 -2 55 21 63 32 8 11 101 73 173 115 37 22 67 43
67 47 0 4 6 5 14 2 7 -3 20 1 27 9 8 8 31 22 52 32 20 9 37 21 37 26 0 5 6 6
14 3 8 -3 17 0 21 5 3 6 11 9 16 6 5 -4 9 -2 9 4 0 5 13 12 30 16 16 4 32 11
35 16 4 5 15 9 26 9 10 0 19 5 19 11 0 5 4 7 10 4 5 -3 23 1 40 10 16 8 30 13
30 10 0 -3 9 -1 20 5 11 6 36 13 56 16 19 2 43 8 52 12 31 15 107 7 129 -14
58 -57 108 -139 151 -249 33 -83 35 -90 33 -102 -1 -7 2 -13 7 -13 5 0 9 -6 9
-12 0 -7 6 -33 13 -58 20 -76 30 -124 34 -150 2 -14 6 -34 9 -45 6 -19 17 -89
22 -150 2 -16 4 -30 5 -30 1 0 4 -13 5 -30 2 -16 6 -50 9 -75 10 -75 19 -220
20 -317 1 -51 3 -93 6 -93 7 0 4 -66 -4 -79 -4 -5 -2 -12 4 -16 9 -6 5 -58 -6
-76 -2 -4 -1 -10 4 -13 10 -6 8 -68 -2 -84 -4 -7 -3 -12 3 -12 10 0 7 -31 -4
-50 -3 -6 -2 -10 3 -10 10 0 9 -36 -1 -46 -3 -4 -2 -15 4 -25 5 -11 6 -19 2
-19 -4 0 -9 -42 -9 -93 -1 -83 -11 -302 -14 -302 0 0 -3 -38 -6 -85 -4 -75
-10 -125 -14 -125 0 0 -3 -36 -6 -80 -2 -44 -6 -96 -9 -115 -2 -19 -6 -69 -10
-110 -4 -41 -11 -82 -16 -92 -6 -10 -5 -19 1 -23 6 -4 8 -11 4 -16 -6 -11 -11
-35 -18 -99 -3 -25 -10 -81 -16 -125 -7 -44 -13 -95 -13 -112 -1 -18 -5 -33
-8 -33 -4 0 -7 -12 -7 -27 0 -51 -12 -147 -20 -153 -6 -5 -10 -38 -15 -130 -1
-19 -5 -37 -9 -40 -4 -3 -8 -25 -9 -48 -2 -24 -6 -45 -9 -47 -4 -2 -6 -18 -5
-35 1 -16 -1 -30 -5 -30 -3 0 -6 -12 -7 -27 -2 -36 -11 -92 -20 -118 -3 -11
-7 -33 -9 -50 -1 -16 -9 -63 -17 -102 -8 -40 -13 -73 -10 -73 2 0 1 -6 -4 -12
-4 -7 -9 -24 -9 -38 -1 -14 -3 -25 -4 -25 -2 0 -6 -17 -18 -85 -6 -30 -14 -71
-18 -90 -4 -19 -7 -45 -8 -57 0 -13 -4 -23 -8 -23 -4 0 -7 -3 -6 -7 1 -5 -2
-28 -7 -53 -5 -25 -10 -53 -11 -62 -1 -10 -3 -20 -4 -23 -5 -9 -7 -20 -15 -73
-4 -29 -12 -55 -16 -58 -5 -3 -7 -9 -5 -13 3 -4 -1 -31 -9 -59 -7 -29 -11 -52
-9 -52 2 0 -1 -12 -7 -27 -6 -16 -13 -41 -14 -58 -2 -16 -4 -30 -5 -30 -2 0
-6 -22 -15 -74 -3 -19 -8 -37 -13 -40 -4 -3 -8 -15 -8 -26 -1 -21 -5 -38 -24
-120 -18 -77 -22 -99 -23 -115 0 -8 -3 -19 -7 -25 -5 -5 -11 -26 -14 -45 -3
-19 -8 -44 -11 -55 -2 -11 -9 -42 -15 -70 -6 -27 -14 -57 -17 -65 -4 -8 -7
-23 -8 -32 -2 -10 -3 -19 -5 -20 -1 -2 -3 -10 -5 -18 -18 -71 -22 -90 -18 -93
6 -7 -61 -57 -75 -57 -7 0 -12 -5 -12 -11 0 -5 -4 -7 -10 -4 -5 3 -10 1 -10
-6 0 -7 -3 -10 -6 -6 -3 3 -28 -8 -55 -24 -28 -16 -54 -29 -59 -29 -6 0 -10
-4 -10 -9 0 -5 -12 -12 -27 -16 -15 -3 -30 -10 -33 -13 -3 -4 -23 -16 -45 -27
-22 -10 -48 -26 -57 -34 -10 -8 -18 -11 -18 -7 0 4 -12 -1 -27 -12 -16 -11
-44 -27 -63 -35 -19 -9 -54 -28 -77 -41 -24 -14 -43 -22 -43 -18 0 4 -4 3 -8
-3 -11 -16 -102 -66 -124 -69 -4 -1 -13 -7 -19 -14 -7 -6 -19 -12 -26 -12 -7
0 -13 -5 -13 -12 0 -6 -3 -9 -6 -5 -3 3 -32 -10 -64 -29 -32 -19 -63 -34 -69
-34 -6 0 -11 -5 -11 -12 0 -6 -3 -8 -6 -5 -4 4 -19 -2 -34 -13 -15 -11 -30
-17 -34 -13 -3 3 -6 1 -6 -6 0 -7 -4 -10 -9 -7 -5 4 -11 2 -13 -2 -1 -5 -38
-27 -80 -49 -43 -22 -75 -43 -71 -47 4 -4 0 -4 -10 0 -10 3 -17 1 -17 -5 0 -6
-3 -11 -7 -10 -14 2 -53 -13 -53 -20 0 -4 -25 -18 -55 -31 -30 -13 -55 -27
-55 -31 0 -4 -12 -10 -27 -14 -15 -3 -30 -10 -33 -14 -5 -7 -51 -32 -170 -93
-36 -18 -68 -37 -72 -43 -5 -7 -8 -7 -8 0 0 6 -7 1 -15 -9 -8 -11 -15 -17 -15
-13 0 9 -113 -52 -121 -65 -3 -5 -8 -8 -11 -6 -5 3 -118 -52 -128 -62 -3 -3
-31 -18 -62 -34 -32 -16 -58 -33 -58 -38 0 -5 -5 -6 -11 -3 -5 4 -18 1 -27 -7
-25 -20 -102 -60 -102 -53 0 4 -14 -5 -31 -19 -17 -14 -35 -24 -40 -20 -5 3
-9 0 -9 -5 0 -6 -7 -11 -15 -11 -8 0 -15 -5 -15 -12 0 -6 -3 -9 -6 -6 -3 4
-31 -8 -62 -26 -31 -17 -75 -40 -97 -51 -22 -11 -43 -24 -47 -30 -4 -5 -8 -6
-8 -2 0 5 -7 1 -16 -7 -8 -9 -20 -14 -25 -11 -5 4 -9 2 -9 -2 0 -5 -36 -27
-80 -48 -44 -21 -80 -43 -80 -48 0 -4 -4 -6 -9 -2 -5 3 -13 0 -16 -5 -7 -11
-47 -30 -72 -36 -7 -1 -19 -9 -27 -17 -8 -8 -36 -23 -60 -33 -25 -11 -46 -22
-46 -26 0 -5 -7 -8 -15 -8 -8 0 -15 -5 -15 -11 0 -5 -4 -7 -10 -4 -5 3 -10 1
-10 -4 0 -6 -3 -10 -7 -9 -9 2 -43 -14 -98 -45 -44 -25 -216 -118 -280 -151
-22 -12 -43 -25 -46 -29 -3 -5 -10 -9 -15 -9 -18 -1 -52 -17 -59 -28 -3 -5
-10 -8 -15 -5 -5 3 -12 0 -15 -5 -7 -12 -55 -34 -67 -32 -5 1 -8 -2 -8 -7 0
-5 -21 -19 -47 -32 -27 -12 -51 -27 -55 -33 -4 -6 -8 -7 -8 -2 0 5 -7 3 -15
-4 -8 -7 -15 -9 -15 -4 0 5 -4 4 -8 -2 -12 -18 -98 -65 -105 -57 -4 3 -7 2 -7
-4 0 -6 -13 -16 -30 -22 -16 -5 -30 -15 -30 -21 0 -6 -5 -8 -12 -4 -6 4 -17
-1 -24 -10 -7 -10 -15 -17 -18 -17 -12 1 -42 -13 -58 -27 -10 -8 -18 -11 -18
-6 0 5 -4 4 -8 -1 -4 -6 -34 -23 -67 -40 -33 -16 -68 -36 -78 -44 -9 -8 -17
-10 -17 -5 0 5 -4 4 -8 -1 -4 -6 -33 -23 -64 -39 -32 -16 -58 -33 -58 -38 0
-5 -6 -8 -12 -5 -7 2 -28 -6 -47 -19 -19 -13 -38 -21 -43 -18 -4 3 -8 -2 -8
-10 0 -10 -6 -13 -15 -10 -8 4 -15 1 -15 -5 0 -6 -6 -11 -12 -11 -7 0 -29 -10
-48 -22 -19 -12 -39 -22 -43 -23 -4 0 -12 -7 -17 -15 -5 -8 -10 -11 -10 -6 0
5 -7 3 -15 -4 -8 -7 -15 -10 -15 -6 0 3 -17 -4 -38 -18 -20 -13 -62 -36 -92
-51 -30 -15 -58 -32 -61 -37 -3 -5 -9 -10 -12 -10 -20 0 -47 -12 -47 -21 0 -6
-3 -8 -6 -4 -3 3 -23 -5 -44 -18 -21 -13 -60 -35 -87 -48 l-50 -24 -13 46 c-7
25 -15 53 -16 61 -1 8 -11 44 -23 79 -11 35 -19 67 -16 71 3 5 -1 10 -7 12 -7
3 -13 13 -14 24 0 10 -8 46 -18 79 -19 60 -24 79 -27 93 -1 4 -10 31 -20 60
-10 28 -15 52 -12 52 3 0 1 6 -5 13 -7 7 -13 29 -14 48 -2 19 -9 40 -16 47 -7
8 -10 18 -6 23 3 6 1 15 -4 22 -5 7 -15 37 -22 67 -7 30 -17 60 -22 66 -5 7
-8 16 -7 20 1 5 0 16 -4 24 -9 25 -45 153 -52 190 -4 19 -11 41 -15 50 -11 21
-41 131 -42 158 -1 6 -4 12 -8 12 -4 0 -7 6 -8 13 0 6 -3 25 -7 41 -3 16 -7
34 -8 40 -1 6 -4 13 -8 16 -3 3 -12 34 -21 70 -25 100 -48 183 -55 200 -3 8
-7 22 -8 30 -1 14 -20 78 -32 110 -3 8 -7 28 -8 43 -1 16 -6 32 -11 35 -5 4
-9 14 -9 22 0 8 -8 42 -18 75 -10 33 -20 75 -23 95 -3 19 -9 37 -13 40 -3 3
-8 19 -9 35 -2 17 -7 31 -12 33 -4 2 -6 12 -3 22 3 11 1 20 -3 20 -5 0 -10 10
-11 23 -2 21 -9 56 -13 67 -1 3 -2 8 -1 13 0 4 -3 7 -8 7 -5 0 -8 6 -7 13 2
18 -27 137 -34 137 -3 0 -6 12 -7 27 -1 24 -13 73 -31 123 -2 8 -6 24 -8 35
-3 18 -11 56 -13 63 -1 1 -1 4 -1 7 -1 3 -7 22 -14 42 -7 21 -11 44 -9 51 3 6
-1 12 -8 12 -7 0 -10 3 -7 6 4 3 2 20 -3 37 -5 18 -12 48 -15 67 -3 19 -9 39
-14 44 -5 5 -6 14 -4 21 3 7 1 16 -5 20 -6 3 -11 22 -11 41 0 19 -3 34 -7 34
-5 0 -9 10 -9 23 -1 12 -4 29 -6 37 -3 8 -8 33 -13 55 -4 22 -10 44 -13 50 -3
5 -7 18 -9 30 -1 11 -4 27 -6 35 -2 8 -7 33 -12 55 -4 22 -10 44 -13 50 -3 5
-7 16 -8 25 -1 8 -4 26 -8 40 -3 14 -10 45 -16 70 -6 25 -13 56 -17 70 -3 14
-6 33 -7 43 0 9 -5 17 -10 17 -5 0 -7 2 -4 6 3 3 2 22 -3 42 -17 66 -19 77
-24 106 -3 16 -10 37 -15 46 -5 10 -7 20 -3 23 3 3 2 14 -2 24 -4 10 -9 29
-11 43 -7 47 -10 55 -18 68 -4 7 -6 16 -3 19 3 3 1 16 -4 30 -5 14 -12 41 -15
61 -9 54 -13 71 -17 80 -3 4 -8 23 -11 42 -3 19 -9 49 -12 65 -4 17 -7 40 -7
53 -1 12 -5 22 -9 22 -4 0 -7 3 -6 8 1 4 -4 39 -12 77 -7 39 -15 79 -16 90 -1
11 -3 21 -3 23 -1 1 -1 4 -2 7 0 2 -4 19 -9 36 -9 29 -17 75 -26 134 -1 11 -3
20 -4 20 -3 0 -17 76 -26 140 -3 22 -7 46 -10 54 -3 8 -7 30 -10 50 -2 20 -7
52 -11 71 -9 52 -13 82 -17 115 -2 17 -6 37 -9 45 -5 14 -16 88 -20 140 -1 14
-6 31 -10 38 -5 7 -4 12 3 12 6 0 8 4 5 10 -10 16 -19 76 -30 200 -2 19 -4 35
-5 35 -2 0 -9 75 -14 155 -3 41 -6 75 -6 75 -6 0 -22 199 -24 287 -1 27 -5 48
-11 48 -5 0 -4 4 4 9 8 5 10 14 5 22 -4 7 -9 72 -11 144 -2 71 -4 147 -6 168
-1 20 2 37 8 37 7 0 6 3 0 8 -14 9 -13 55 0 64 7 5 7 8 0 8 -12 0 -13 59 -1
78 4 7 3 12 -2 12 -9 0 -7 71 3 98 3 8 0 10 -6 6 -7 -4 -9 0 -5 14 4 12 9 76
12 144 6 169 11 234 18 246 3 6 2 13 -4 17 -6 4 -7 13 -1 23 4 9 9 33 10 52 1
19 3 45 4 58 0 12 3 22 7 22 3 0 6 17 6 38 1 20 5 60 8 87 4 28 8 62 9 78 1
15 5 27 8 27 3 0 6 6 6 13 1 6 4 28 7 47 4 19 8 46 10 60 2 14 5 26 6 28 3 3
5 11 15 57 4 22 12 46 18 53 5 6 7 12 4 12 -8 0 23 102 35 118 6 6 8 12 4 12
-4 0 0 14 9 30 9 17 13 30 9 30 -4 0 -1 7 6 15 7 8 9 15 4 15 -5 0 -4 4 1 8
16 12 45 69 38 76 -3 3 -1 6 5 6 7 0 12 5 12 11 0 9 37 64 65 95 10 11 75 11
177 -1z m11431 -3742 c8 -21 32 -74 52 -118 20 -44 44 -96 52 -115 8 -19 21
-47 29 -61 7 -14 11 -29 7 -33 -3 -3 -1 -6 5 -6 7 0 11 -3 10 -7 -1 -5 6 -25
15 -47 9 -21 17 -41 17 -45 1 -3 9 -24 20 -46 10 -22 16 -43 14 -47 -3 -5 -1
-8 4 -8 6 0 13 -12 17 -27 3 -16 12 -41 20 -58 7 -16 30 -77 50 -135 20 -58
42 -116 48 -130 6 -14 9 -31 8 -37 -1 -7 3 -13 9 -13 6 0 10 -6 9 -12 -1 -7 3
-26 10 -43 7 -16 13 -38 14 -47 1 -10 5 -18 9 -18 4 0 7 -3 6 -7 -3 -11 30
-124 42 -145 5 -9 12 -30 15 -47 3 -16 9 -41 15 -55 5 -15 6 -26 3 -26 -4 0
-2 -5 5 -12 7 -7 12 -22 12 -35 0 -13 3 -23 8 -23 4 0 8 -10 9 -23 3 -26 7
-46 16 -67 8 -20 28 -100 30 -125 1 -11 5 -22 9 -25 4 -3 8 -20 10 -38 1 -18
6 -32 11 -32 5 0 7 -11 5 -25 -3 -14 -2 -25 3 -25 4 0 6 -9 4 -20 -2 -11 0
-20 4 -20 5 0 11 -15 14 -32 3 -18 7 -43 10 -54 3 -12 8 -37 11 -55 3 -19 10
-49 15 -66 5 -18 7 -33 5 -33 -3 0 -2 -5 2 -12 8 -12 16 -56 17 -95 1 -13 5
-23 9 -23 4 0 8 -18 8 -40 0 -22 3 -40 8 -40 4 0 8 -17 9 -38 3 -39 11 -97 13
-97 3 0 9 -40 12 -72 1 -18 5 -33 8 -33 3 0 6 -15 7 -33 3 -44 11 -111 13
-114 4 -4 7 -39 9 -79 1 -25 5 -33 14 -28 9 6 9 5 0 -8 -7 -8 -11 -17 -8 -20
6 -6 15 -70 20 -148 2 -36 5 -65 5 -65 9 0 33 -290 34 -402 1 -40 3 -73 6 -73
5 0 10 -130 14 -360 1 -69 5 -131 9 -137 5 -7 5 -13 0 -13 -4 0 -9 -64 -9
-143 -3 -237 -7 -331 -16 -349 -5 -10 -4 -19 2 -23 6 -4 8 -10 6 -14 -5 -7
-13 -119 -21 -268 -1 -34 -5 -65 -7 -70 -3 -4 -6 -26 -6 -47 -1 -22 -4 -62 -8
-90 -3 -28 -7 -63 -7 -78 0 -16 -3 -28 -6 -28 -3 0 -7 -19 -8 -43 -1 -47 -12
-139 -20 -177 -2 -14 -6 -43 -8 -65 -2 -22 -4 -40 -5 -40 -2 0 -4 -11 -6 -25
-6 -57 -21 -145 -24 -145 -1 0 -3 -12 -5 -26 -6 -45 -14 -92 -25 -144 -6 -27
-13 -63 -15 -80 -3 -16 -7 -37 -9 -45 -1 -8 -6 -33 -11 -55 -4 -22 -10 -44
-13 -49 -3 -5 -6 -21 -8 -35 -1 -14 -6 -37 -9 -51 -3 -14 -9 -38 -12 -55 -3
-16 -8 -32 -11 -35 -4 -3 -8 -14 -8 -25 -1 -11 -4 -31 -7 -45 -12 -58 -19 -86
-24 -100 -3 -8 -7 -19 -9 -25 -4 -19 -14 -60 -20 -90 -4 -16 -10 -34 -14 -40
-4 -5 -6 -18 -5 -27 2 -10 -1 -18 -7 -18 -6 0 -8 -9 -5 -20 3 -11 1 -20 -4
-20 -5 0 -9 -8 -9 -17 0 -10 -7 -37 -15 -61 -9 -24 -13 -48 -10 -53 4 -5 2 -9
-2 -9 -5 0 -15 -21 -22 -47 -7 -27 -19 -64 -26 -84 -8 -20 -11 -39 -8 -43 4
-3 0 -6 -7 -6 -7 0 -11 -3 -7 -6 3 -4 0 -22 -8 -40 -8 -19 -11 -34 -8 -34 3 0
1 -6 -4 -12 -6 -7 -16 -34 -24 -60 -7 -26 -17 -45 -21 -42 -4 3 -5 -2 -2 -11
4 -8 1 -21 -5 -29 -6 -7 -8 -16 -4 -19 3 -4 1 -7 -6 -7 -7 0 -10 -4 -7 -8 3
-5 -1 -20 -9 -35 -8 -15 -12 -27 -10 -27 2 0 -3 -17 -12 -37 -31 -76 -36 -88
-38 -98 -2 -5 -12 -33 -23 -61 -12 -29 -18 -55 -15 -58 4 -3 1 -6 -5 -6 -6 0
-15 -15 -21 -32 -15 -51 -55 -142 -66 -150 -5 -4 -7 -8 -3 -8 7 0 -16 -57 -67
-165 -13 -27 -39 -86 -60 -130 -59 -129 -80 -170 -87 -173 -5 -2 -8 -8 -8 -14
0 -15 -43 -102 -55 -110 -5 -4 -6 -8 -1 -8 5 0 1 -8 -8 -19 -9 -10 -18 -28
-19 -39 0 -12 -3 -19 -5 -17 -3 2 -17 -21 -33 -51 -15 -31 -33 -62 -40 -70 -6
-8 -8 -14 -5 -14 4 0 0 -7 -8 -16 -9 -8 -14 -20 -11 -25 4 -5 2 -9 -4 -9 -5 0
-20 -22 -33 -50 -13 -27 -26 -50 -30 -50 -5 0 -8 -9 -8 -19 0 -11 -3 -21 -7
-23 -10 -4 -73 -107 -73 -119 0 -5 -5 -9 -11 -9 -5 0 -8 -4 -5 -8 3 -5 -4 -19
-15 -31 -11 -12 -27 -37 -35 -56 -8 -19 -18 -35 -23 -35 -6 0 -13 -10 -17 -22
-3 -12 -22 -43 -40 -70 -19 -26 -32 -48 -29 -48 5 0 -2 -10 -31 -43 -6 -7 -23
-33 -38 -60 -15 -26 -32 -47 -37 -47 -5 0 -9 -5 -9 -11 0 -12 -52 -89 -76
-113 -8 -9 -13 -16 -9 -16 3 0 -9 -20 -27 -44 -18 -24 -40 -54 -48 -66 -8 -12
-21 -29 -28 -36 -7 -8 -10 -14 -5 -14 4 0 -3 -7 -15 -16 -12 -8 -22 -20 -22
-25 0 -6 -6 -16 -12 -23 -7 -7 -22 -25 -33 -40 -11 -16 -26 -34 -33 -42 -7 -8
-11 -14 -8 -14 3 0 -3 -9 -14 -20 -11 -11 -20 -25 -20 -31 0 -5 -4 -7 -10 -4
-5 3 -10 2 -10 -4 0 -5 -12 -23 -26 -40 -14 -17 -23 -31 -20 -31 3 0 -11 -16
-31 -35 -20 -19 -33 -35 -29 -35 5 0 -1 -8 -12 -19 -12 -10 -22 -21 -22 -24 0
-4 -12 -19 -27 -35 -16 -16 -44 -49 -63 -73 -19 -24 -44 -53 -55 -65 -11 -12
-45 -50 -75 -85 -30 -35 -63 -70 -72 -78 -9 -8 -15 -18 -12 -23 3 -4 0 -8 -6
-8 -6 0 -25 -17 -43 -37 -30 -36 -298 -314 -324 -337 -7 -6 -53 -50 -103 -97
-89 -85 -114 -108 -245 -224 -37 -33 -81 -72 -96 -87 -15 -14 -30 -23 -33 -20
-3 3 -6 0 -6 -6 0 -6 -16 -22 -35 -35 -19 -13 -32 -27 -28 -30 3 -4 0 -7 -8
-7 -8 0 -34 -19 -59 -41 -25 -22 -57 -48 -72 -57 -16 -9 -28 -19 -28 -22 0 -4
-21 -22 -47 -40 -27 -19 -50 -37 -53 -40 -3 -3 -23 -19 -45 -35 -22 -17 -42
-33 -45 -37 -3 -3 -30 -23 -60 -44 -30 -21 -59 -41 -65 -46 -44 -37 -132 -98
-142 -98 -7 0 -13 -4 -13 -9 0 -5 -29 -28 -65 -50 -36 -23 -65 -47 -65 -54 0
-8 -4 -7 -10 3 -5 8 -10 10 -10 4 0 -11 -75 -64 -91 -64 -5 0 -9 -4 -9 -8 0
-5 -16 -17 -35 -28 -19 -10 -35 -22 -35 -26 0 -5 -3 -7 -7 -6 -12 4 -103 -53
-103 -63 0 -5 -9 -9 -19 -9 -11 0 -21 -5 -23 -12 -2 -6 -11 -12 -19 -13 -8 -2
-35 -17 -61 -34 -25 -17 -51 -31 -57 -31 -6 0 -11 -4 -11 -9 0 -5 -8 -11 -17
-14 -23 -8 -98 -50 -118 -67 -8 -7 -15 -9 -15 -5 0 3 -12 -3 -26 -14 -15 -12
-33 -21 -40 -21 -8 0 -14 -4 -14 -10 0 -5 -5 -10 -11 -10 -6 0 -38 -16 -72
-34 -34 -19 -66 -36 -72 -37 -5 0 -22 -10 -37 -21 -16 -11 -28 -16 -28 -11 0
4 -4 3 -8 -2 -4 -6 -31 -21 -59 -34 -29 -14 -53 -28 -53 -33 0 -4 -3 -7 -7 -7
-5 1 -11 0 -15 -1 -5 -1 -11 -3 -15 -4 -5 -2 -66 -31 -138 -65 -71 -35 -134
-64 -140 -65 -5 -1 -36 -14 -67 -29 -32 -15 -59 -27 -60 -26 -2 1 -22 -8 -44
-19 -23 -12 -44 -18 -48 -15 -3 4 -6 1 -6 -5 0 -7 -3 -11 -7 -10 -15 4 -53
-13 -53 -23 0 -6 -4 -8 -9 -5 -8 5 -29 -2 -111 -37 -14 -6 -29 -12 -35 -12 -5
-1 -26 -9 -45 -17 -19 -9 -54 -22 -77 -29 -24 -6 -43 -17 -43 -22 0 -6 -3 -8
-6 -4 -4 3 -35 -5 -70 -18 -35 -13 -64 -22 -64 -18 0 3 -6 1 -12 -5 -12 -9
-210 -76 -233 -78 -5 0 -17 -4 -25 -7 -23 -9 -100 -34 -150 -48 -64 -18 -73
-20 -87 -21 -7 -1 -13 -5 -13 -10 0 -5 -4 -7 -9 -4 -8 5 -40 -3 -91 -21 -8 -3
-22 -7 -30 -8 -42 -7 -84 -16 -92 -21 -12 -8 -50 -16 -80 -18 -16 0 -28 -4
-28 -8 0 -5 -3 -7 -7 -7 -5 1 -10 1 -13 -1 -3 -1 -16 -3 -30 -5 -33 -6 -65
-13 -65 -15 0 -1 -9 -3 -20 -5 -11 -2 -31 -6 -45 -9 -27 -6 -62 -14 -100 -21
-14 -3 -38 -7 -55 -9 -16 -2 -37 -7 -47 -11 -9 -3 -31 -8 -50 -10 -18 -2 -33
-4 -33 -5 0 -3 -28 -7 -157 -26 -24 -3 -51 -11 -62 -16 -14 -8 -17 -7 -11 3 5
8 4 10 -4 5 -6 -4 -24 -9 -39 -12 -15 -2 -43 -7 -62 -10 -43 -7 -114 -16 -160
-19 -19 -1 -35 -3 -35 -5 0 -1 -18 -4 -40 -6 -22 -2 -60 -6 -85 -9 -108 -13
-383 -34 -485 -38 -16 -1 -33 -6 -37 -12 -5 -7 -8 -6 -8 2 0 7 -11 9 -32 6
-41 -8 -771 -8 -816 -1 -18 3 -35 1 -38 -4 -4 -5 -10 -5 -17 0 -7 5 -43 10
-82 12 -87 3 -160 7 -160 9 0 1 -34 4 -75 7 -117 8 -124 9 -137 17 -6 4 -14 3
-18 -3 -4 -6 -10 -8 -14 -6 -11 7 -59 15 -108 18 -24 1 -43 4 -43 7 0 4 -21 7
-48 7 -45 2 -127 11 -127 14 0 1 -11 3 -25 5 -14 2 -45 6 -70 10 -25 3 -58 8
-75 10 -80 11 -91 13 -105 18 -8 3 -33 8 -55 11 -22 3 -61 9 -87 14 -27 5 -48
7 -48 5 0 -2 -6 -1 -12 4 -13 8 -20 9 -73 18 -41 6 -73 13 -97 21 -11 3 -30 7
-41 9 -12 2 -53 10 -92 19 -38 9 -83 19 -99 22 -16 3 -40 10 -53 15 -13 5 -36
9 -49 9 -14 0 -23 3 -21 8 3 4 -7 8 -21 9 -43 4 -61 9 -68 16 -4 4 -20 7 -36
7 -15 0 -28 4 -28 8 0 4 -8 9 -17 10 -10 1 -25 3 -33 6 -8 2 -30 7 -47 11 -18
4 -33 10 -33 14 0 3 -10 7 -23 8 -36 4 -56 9 -63 16 -4 4 -17 7 -29 7 -11 0
-26 5 -33 12 -7 7 -12 9 -12 5 0 -4 -8 -3 -18 2 -11 6 -30 12 -43 15 -20 4
-106 32 -157 51 -7 2 -14 5 -17 5 -3 1 -20 7 -40 16 -19 8 -35 11 -35 8 0 -4
-6 -1 -13 5 -8 6 -17 8 -20 4 -4 -3 -7 -1 -7 5 0 7 -8 12 -18 12 -10 0 -22 3
-26 7 -3 4 -16 8 -28 10 -12 2 -26 7 -32 12 -6 4 -32 14 -58 22 -27 7 -48 17
-48 21 0 4 -11 8 -25 8 -14 0 -25 4 -25 10 0 5 -7 7 -15 4 -8 -4 -15 -1 -15 6
0 6 -4 9 -9 5 -5 -3 -12 -1 -16 5 -3 5 -15 10 -26 10 -11 0 -18 3 -16 8 3 4
-7 8 -21 9 -15 0 -28 6 -30 12 -2 6 -10 11 -18 11 -7 0 -38 11 -69 25 -30 14
-57 25 -60 25 -3 -1 -18 6 -33 14 -43 23 -121 56 -132 56 -5 0 -10 4 -10 10 0
5 -3 9 -7 8 -17 -4 -491 232 -529 263 -8 6 -14 8 -14 4 0 -4 -6 -3 -12 3 -12
9 -29 19 -125 73 -21 11 -42 25 -48 30 -5 5 -17 9 -28 9 -10 0 -15 4 -12 10 3
5 1 10 -6 10 -11 0 -129 68 -139 80 -7 9 -43 24 -52 22 -5 -1 -8 2 -8 6 0 5
-16 17 -35 28 -19 10 -35 22 -35 27 0 4 -4 6 -9 2 -6 -3 -13 0 -18 7 -4 7 -25
22 -45 33 -21 11 -38 23 -38 27 0 5 -5 8 -11 8 -12 0 -103 60 -107 72 -2 4 -7
8 -12 8 -12 0 -90 52 -90 61 0 3 -8 9 -17 13 -20 6 -51 25 -71 43 -15 15 -114
83 -143 99 -10 6 -16 13 -13 16 3 4 -4 9 -15 13 -12 3 -21 11 -21 16 0 6 -4 8
-9 5 -5 -4 -11 -3 -13 1 -3 9 -51 48 -93 78 -15 11 -36 28 -47 37 -10 10 -22
18 -26 18 -4 0 -14 9 -22 20 -8 11 -19 20 -25 20 -6 0 -17 9 -25 20 -8 11 -20
20 -27 20 -7 0 -13 4 -13 8 0 5 -11 15 -25 22 -13 7 -22 17 -19 22 3 4 -1 8
-8 8 -7 0 -37 23 -67 50 -29 28 -55 50 -58 50 -2 0 -10 6 -17 13 -7 6 -44 39
-81 72 -37 33 -93 83 -123 112 -31 28 -60 49 -64 47 -5 -3 -7 -1 -6 4 2 5 -17
28 -42 52 -66 63 -237 230 -236 230 1 0 -44 47 -99 104 -55 57 -129 136 -165
176 -36 40 -76 85 -90 100 -27 29 -71 81 -123 144 -18 22 -44 52 -59 68 -14
15 -24 28 -21 28 3 0 -3 8 -13 18 -10 9 -35 37 -54 62 -19 25 -38 47 -42 48
-4 2 -8 8 -8 13 0 5 -8 17 -17 27 -35 36 -63 72 -56 72 3 0 -6 11 -20 24 -14
13 -23 27 -20 30 4 3 1 6 -5 6 -7 0 -12 5 -12 10 0 6 -10 22 -22 35 -38 40
-48 54 -48 65 0 5 -4 10 -10 10 -5 0 -10 7 -10 15 0 8 -3 15 -8 15 -4 0 -18
18 -32 40 -14 22 -28 40 -32 40 -5 0 -8 5 -8 10 0 6 -9 20 -20 32 -11 12 -25
34 -32 49 -7 15 -16 25 -20 23 -4 -3 -8 2 -8 10 0 8 -7 22 -16 30 -8 9 -13 16
-9 16 4 0 0 6 -7 14 -23 24 -48 56 -48 61 0 7 -52 87 -67 102 -6 7 -17 26 -25
43 -7 16 -16 30 -20 30 -5 0 -8 7 -8 15 0 8 -4 15 -9 15 -5 0 -11 8 -14 17 -6
18 -37 73 -47 83 -6 6 -21 30 -58 95 -16 28 -38 67 -50 87 -12 21 -18 37 -14
36 4 -1 23 6 42 17 19 10 41 20 47 21 7 1 19 9 28 17 8 9 25 19 38 23 12 4 39
18 60 31 20 13 37 20 37 16 0 -5 4 -3 8 3 4 6 29 21 55 35 26 13 57 28 67 34
11 5 20 13 20 17 0 4 7 5 15 2 8 -4 15 -2 15 3 0 6 18 18 40 28 22 10 37 22
33 28 -3 6 -1 7 5 3 10 -6 70 18 82 33 3 4 24 15 48 25 23 11 42 23 42 28 0 4
3 7 8 6 7 -2 83 32 92 42 3 3 34 20 70 38 140 72 298 158 312 169 8 7 18 10
21 6 4 -3 7 -2 7 4 0 6 12 14 26 17 15 4 33 14 41 22 8 8 19 12 24 9 5 -4 9
-2 9 4 0 6 11 13 25 17 14 3 25 9 25 13 0 4 16 13 35 20 19 7 35 17 35 22 0 6
4 7 10 4 6 -3 10 -1 10 6 0 7 3 9 7 6 3 -4 15 0 25 10 10 9 18 13 18 10 0 -4
23 7 50 23 28 17 55 30 60 30 6 0 10 4 10 8 0 7 43 27 64 29 5 1 12 5 15 10 3
5 35 24 71 42 36 19 68 38 71 44 3 5 8 8 10 6 12 -7 48 14 43 24 -4 7 -4 9 1
5 7 -7 160 67 191 93 8 6 14 8 14 3 0 -5 4 -4 8 1 4 6 36 25 72 44 36 19 94
50 130 69 36 19 88 46 115 60 28 14 58 32 68 40 9 9 17 12 17 8 0 -3 18 5 39
18 21 14 42 22 45 19 3 -4 6 -1 6 5 0 6 16 16 35 23 19 7 35 16 35 20 0 6 12
11 45 18 6 1 19 11 30 21 11 10 22 19 25 20 26 4 50 14 50 19 0 4 16 13 35 21
19 8 35 17 35 22 0 4 3 7 8 6 12 -3 62 25 62 34 0 5 5 6 10 3 6 -3 22 3 36 14
15 12 31 21 36 21 4 0 26 11 48 25 21 14 45 26 52 27 7 2 15 6 18 9 3 3 19 12
35 21 148 75 203 107 197 113 -4 4 0 6 8 3 8 -3 21 1 28 9 8 7 18 11 23 8 5
-4 9 -2 9 3 0 5 24 19 53 33 28 13 54 27 57 30 3 4 28 17 55 30 28 13 56 29
63 36 8 7 18 11 23 8 5 -4 9 -1 9 5 0 6 5 8 10 5 6 -3 10 -1 10 4 0 6 5 11 11
11 6 0 24 9 40 21 16 11 29 17 29 14 0 -3 12 2 28 13 24 16 119 68 179 96 13
6 23 15 23 19 0 5 4 6 9 3 5 -3 19 2 32 12 13 10 38 24 54 32 17 8 51 27 77
42 25 14 49 24 52 21 3 -4 6 -1 6 6 0 7 5 9 10 6 6 -3 10 -1 10 4 0 6 4 11 9
11 5 0 36 15 69 34 33 19 63 32 66 28 3 -3 6 0 6 6 0 7 7 12 15 12 8 0 15 5
15 11 0 5 4 7 10 4 5 -3 10 -2 10 2 0 5 15 15 34 21 19 7 50 24 70 37 20 13
36 21 36 17 0 -4 4 -2 8 3 4 6 25 19 47 30 22 10 48 26 58 34 9 8 17 11 17 7
0 -9 72 33 82 48 4 6 8 7 8 3 0 -10 112 52 122 67 4 6 8 7 8 2 0 -5 6 -3 13 3
8 6 17 8 20 4 4 -3 7 -1 7 5 0 7 7 12 15 12 8 0 15 5 15 11 0 5 5 7 10 4 6 -3
10 -3 10 2 0 4 25 19 55 33 30 14 55 29 55 33 0 5 5 5 10 2 6 -3 10 -1 10 6 0
7 3 9 7 6 3 -4 15 1 26 10 10 10 22 17 26 17 11 -2 36 10 55 28 13 11 23 15
29 9 13 -13 47 -111 39 -111 -3 0 -1 -5 6 -12 7 -7 12 -22 12 -35 0 -13 4 -23
10 -23 5 0 7 -6 4 -14 -3 -8 -1 -17 5 -20 6 -4 8 -13 4 -21 -3 -8 0 -15 7 -15
6 0 9 -4 6 -8 -3 -5 1 -19 8 -33 7 -13 11 -30 8 -37 -2 -6 1 -12 7 -12 5 0 8
-9 6 -20 -2 -11 0 -22 4 -25 5 -2 14 -26 21 -52 7 -27 17 -54 23 -60 5 -7 7
-13 3 -13 -3 0 0 -16 8 -35 8 -19 13 -35 10 -35 -3 0 -2 -6 3 -12 4 -7 8 -15
9 -18 4 -20 18 -67 23 -75 3 -5 6 -14 8 -20 8 -38 13 -53 24 -80 6 -16 14 -39
16 -50 2 -11 6 -27 10 -35 3 -8 8 -24 10 -35 2 -10 7 -22 11 -25 4 -3 7 -9 8
-15 1 -5 9 -37 20 -70 10 -33 17 -63 16 -67 -1 -5 3 -8 10 -8 6 0 9 -2 6 -5
-3 -4 12 -58 33 -121 22 -63 39 -119 39 -123 0 -5 7 -26 17 -47 16 -38 18 -47
25 -89 2 -11 7 -23 11 -26 4 -3 9 -16 10 -27 1 -12 5 -22 9 -22 4 0 8 -7 8
-15 0 -21 24 -95 30 -95 3 0 7 -13 8 -29 1 -16 9 -42 17 -57 7 -15 12 -31 9
-36 -3 -4 -1 -8 5 -8 5 0 8 -8 7 -17 -2 -10 0 -20 3 -23 9 -7 61 -164 61 -184
0 -9 5 -16 12 -16 6 0 9 -3 6 -6 -3 -3 7 -42 23 -87 16 -45 30 -84 30 -87 1
-3 5 -15 10 -28 5 -12 11 -34 13 -47 3 -14 8 -30 13 -37 4 -7 8 -17 10 -23 3
-17 25 -79 34 -97 5 -10 9 -26 9 -36 0 -10 5 -23 12 -30 7 -7 9 -12 5 -12 -4
0 -1 -13 7 -29 9 -16 12 -31 9 -35 -4 -3 -2 -6 4 -6 5 0 10 -6 11 -12 1 -23
11 -58 19 -71 4 -6 9 -23 11 -37 2 -13 7 -29 11 -35 5 -5 14 -31 22 -57 7 -27
18 -48 23 -48 5 0 7 -3 3 -6 -3 -3 1 -25 10 -47 8 -23 16 -49 18 -58 2 -8 10
-32 19 -53 9 -21 16 -47 16 -57 0 -11 5 -19 10 -19 6 0 10 -11 10 -25 0 -14 5
-25 11 -25 5 0 7 -4 4 -10 -3 -5 -1 -19 5 -30 6 -12 13 -29 15 -38 3 -15 35
-108 52 -152 3 -8 8 -23 10 -33 1 -10 10 -31 18 -48 9 -16 12 -29 8 -29 -4 0
-2 -5 5 -12 7 -7 12 -22 12 -35 0 -13 5 -23 10 -23 6 0 10 -11 10 -24 0 -14 5
-28 10 -31 6 -3 10 -16 10 -29 0 -12 3 -26 8 -30 4 -4 7 -11 7 -14 1 -16 28
-88 38 -99 5 -7 7 -13 3 -13 -3 0 0 -17 8 -37 16 -44 25 -70 27 -81 0 -4 6
-16 12 -27 6 -11 12 -24 13 -30 6 -29 10 -41 16 -45 4 -3 9 -15 11 -25 2 -11
7 -28 11 -37 4 -9 9 -22 10 -30 3 -15 14 -43 27 -73 10 -24 48 -135 52 -152 2
-7 6 -16 10 -19 4 -4 7 -18 7 -31 0 -12 4 -23 10 -23 5 0 9 -3 8 -7 -2 -8 31
-111 41 -128 3 -5 6 -12 7 -15 4 -21 18 -67 23 -75 3 -5 6 -12 7 -15 0 -3 6
-18 12 -33 7 -16 10 -33 7 -37 -3 -5 3 -13 12 -19 10 -6 15 -11 11 -11 -7 0 7
-44 32 -105 12 -27 51 -138 53 -150 2 -5 5 -14 9 -20 3 -5 9 -25 13 -42 3 -18
10 -33 14 -33 4 0 7 -8 8 -18 1 -10 13 -47 26 -82 35 -92 40 -104 42 -110 18
-62 29 -90 35 -90 6 0 8 -8 12 -50 1 -11 6 -20 10 -20 4 0 8 -9 8 -20 0 -11 4
-20 10 -20 5 0 9 -3 8 -7 -4 -15 27 -103 36 -103 5 0 7 -3 4 -6 -3 -3 4 -32
17 -64 13 -32 20 -61 17 -64 -3 -3 0 -6 6 -6 7 0 11 -3 10 -7 -1 -5 4 -24 12
-43 15 -38 21 -60 20 -75 -1 -3 6 -12 14 -21 8 -8 13 -21 10 -29 -4 -8 -2 -15
3 -15 5 0 10 -10 10 -22 1 -13 7 -24 13 -26 5 -2 8 -8 4 -13 -3 -5 0 -9 6 -9
6 0 8 -4 5 -10 -3 -5 -3 -16 2 -22 4 -7 8 -15 8 -18 0 -3 6 -21 14 -40 12 -33
18 -48 40 -102 5 -13 19 -50 31 -83 12 -33 26 -68 31 -78 5 -10 7 -22 4 -27
-4 -6 1 -13 9 -16 9 -3 14 -9 11 -13 -2 -4 2 -20 10 -34 8 -15 14 -30 13 -33
0 -7 22 -65 33 -87 5 -10 7 -22 4 -27 -4 -6 -2 -10 3 -10 5 0 14 -15 20 -33
22 -67 43 -123 57 -152 7 -16 17 -42 20 -57 4 -16 11 -28 16 -28 5 0 8 -3 7
-7 -4 -16 14 -73 22 -73 5 0 7 -7 4 -15 -4 -8 -1 -15 5 -15 6 0 11 -10 11 -23
0 -12 6 -31 14 -42 7 -11 14 -23 15 -27 3 -13 9 -31 28 -83 10 -27 17 -53 15
-57 -1 -5 2 -8 7 -8 5 0 16 19 26 43 18 46 32 77 65 151 12 27 22 57 23 67 1
10 5 15 9 13 4 -3 8 3 8 13 0 10 8 30 17 43 10 14 16 26 14 28 -3 3 35 102 56
141 6 14 10 28 7 33 -3 4 -1 8 4 8 6 0 16 20 23 45 7 25 17 45 22 45 4 0 6 4
2 9 -3 5 0 13 6 16 5 4 8 13 5 20 -2 7 2 16 11 19 9 4 13 9 10 13 -4 3 -1 15
5 27 7 11 13 28 14 36 2 8 8 16 14 18 5 2 8 7 5 11 -4 7 62 173 85 214 6 10 8
22 5 27 -4 6 -1 10 4 10 6 0 11 9 11 21 0 13 4 18 12 13 6 -4 8 -3 5 3 -4 6 0
24 8 39 8 16 15 36 15 44 0 9 5 21 10 26 6 6 13 21 15 34 2 13 8 26 12 29 5 3
10 15 11 26 2 11 7 25 12 30 10 13 35 88 32 98 -1 4 3 7 9 7 6 0 9 7 5 15 -3
8 -1 15 4 15 5 0 11 10 15 23 3 12 10 31 15 42 5 11 21 52 35 90 15 39 36 89
46 112 10 23 19 49 19 57 0 9 5 16 12 16 6 0 9 3 5 6 -3 3 10 42 29 87 19 45
34 84 34 88 0 4 10 28 22 55 12 27 23 52 24 57 1 4 2 8 4 10 2 3 11 40 12 55
1 6 5 12 9 12 6 0 18 35 20 57 0 5 8 16 16 26 9 9 14 17 11 17 -4 0 9 39 28
86 18 48 31 91 27 97 -3 5 -1 7 4 4 9 -6 14 3 28 56 2 4 4 9 5 12 1 3 3 8 4
13 2 4 8 21 15 37 28 64 35 80 37 88 1 4 2 8 4 10 1 1 3 9 5 17 2 8 9 29 16
45 7 17 13 33 14 38 2 4 4 9 5 12 1 3 3 8 4 13 1 4 8 18 16 32 7 14 13 27 13
30 0 3 3 15 8 28 5 13 9 25 9 26 0 2 8 21 17 42 9 22 16 45 14 52 -1 6 3 12 9
12 5 0 9 3 9 7 -1 5 0 10 1 13 1 3 3 12 5 20 2 8 9 29 16 45 7 17 12 33 11 38
-1 4 3 7 10 7 6 0 9 3 5 6 -3 3 3 26 13 50 11 24 20 46 21 49 9 37 13 45 21
45 5 0 7 4 4 9 -3 5 3 31 13 57 18 46 32 83 36 94 2 5 2 6 45 120 16 41 47
127 70 190 23 63 48 127 56 142 8 16 12 28 8 28 -3 0 -1 7 6 15 7 8 10 15 7
15 -3 0 7 31 23 70 16 39 26 70 23 70 -3 0 0 7 7 15 7 8 10 15 6 15 -4 0 0 10
8 23 8 12 15 27 16 32 0 13 21 77 29 90 3 6 6 12 6 15 0 6 33 97 45 125 5 11
19 49 31 85 13 36 25 67 28 70 3 3 7 12 8 20 3 28 78 235 88 242 6 4 7 8 3 8
-4 0 -1 15 7 34 8 18 11 36 8 40 -4 3 -1 6 6 6 7 0 10 4 7 8 -3 5 1 21 9 35 8
15 14 29 14 30 0 1 4 15 10 30 6 16 11 32 11 36 0 5 6 24 14 42 8 19 15 37 15
41 1 4 15 43 31 87 16 43 26 82 23 85 -4 3 -1 6 5 6 7 0 12 9 12 20 0 11 5 20
11 20 5 0 8 4 5 9 -4 5 -2 20 3 33 5 12 9 26 10 30 1 4 10 28 21 53 11 25 16
45 13 45 -4 0 -2 5 5 12 7 7 12 21 12 33 0 12 4 25 10 31 5 5 11 18 13 29 1
11 6 26 10 33 5 7 11 25 13 39 3 15 8 30 12 33 4 3 9 12 11 20 18 75 61 201
70 210 4 3 6 10 6 15 0 21 59 190 67 193 4 2 5 8 2 13 -3 6 0 16 6 24 7 8 9
15 5 15 -4 0 -3 6 2 13 11 12 25 64 21 70 -2 2 3 11 11 20 7 10 10 17 6 17 -4
0 -2 7 5 15 7 8 9 15 5 15 -4 0 -3 6 3 13 5 6 13 28 17 47 4 19 11 40 15 45 4
6 11 24 15 40 12 44 12 45 15 50 1 3 3 8 5 13 1 4 5 15 8 25 17 42 20 53 23
64 3 16 24 84 31 103 4 8 7 18 7 22 1 3 4 10 9 14 4 4 7 15 7 25 0 10 4 28 9
41 5 13 8 26 7 29 0 3 5 13 12 22 8 9 11 21 7 27 -3 5 -1 10 6 10 7 0 9 3 6 7
-4 3 -2 12 4 20 6 7 9 13 6 13 -3 0 1 16 9 35 8 19 13 38 12 42 -1 5 3 18 10
29 6 12 8 24 5 28 -3 3 -2 6 3 6 5 0 10 8 11 18 1 9 7 31 14 47 7 17 13 35 13
40 1 10 32 105 43 135 4 8 7 18 8 23 2 4 3 8 5 10 1 1 4 16 6 32 3 17 9 32 15
33 5 2 6 8 3 13 -3 6 -1 15 4 22 5 7 15 36 22 65 6 28 16 55 21 58 5 3 7 9 4
14 -3 5 1 23 10 40 8 16 13 30 10 30 -4 0 -3 6 2 13 4 6 8 15 9 20 1 4 2 8 4
10 3 4 12 42 13 60 1 9 5 17 9 17 4 0 8 6 8 13 0 13 33 123 47 157 4 8 7 22 8
30 1 8 4 22 8 30 6 17 30 91 33 103 1 4 3 10 4 15 2 4 4 12 5 17 6 31 19 71
26 80 4 6 9 24 11 40 2 17 7 33 11 36 7 5 14 33 19 77 1 6 4 12 8 12 3 0 7 10
7 22 1 13 7 24 12 26 5 2 7 10 4 18 -3 8 0 21 7 29 7 9 10 18 7 22 -4 3 -2 12
4 20 6 7 8 13 4 13 -4 0 -2 7 5 15 7 8 10 15 6 15 -3 0 1 17 9 38 9 20 16 38
16 39 -2 14 14 65 20 69 5 3 7 10 4 15 -4 5 -3 15 2 22 4 6 8 17 10 22 5 26
14 55 33 120 12 39 28 95 36 125 8 30 19 66 24 80 6 14 13 36 16 50 8 36 8 39
29 105 10 33 20 66 21 74 2 8 6 26 10 40 4 14 8 29 9 34 2 4 3 8 5 10 1 1 3
10 6 20 2 9 6 25 8 35 3 9 5 17 6 17 1 0 3 7 5 15 9 35 15 61 21 83 3 12 7 30
7 40 1 9 5 17 9 17 4 0 8 7 8 16 0 8 11 55 25 103 14 48 28 97 30 107 2 10 9
37 15 59 6 22 12 45 13 50 1 6 5 15 8 20 4 6 5 18 4 28 -2 9 2 17 8 17 5 0 8
3 4 6 -3 3 -2 17 3 30 6 14 12 35 14 47 6 25 11 46 27 102 6 22 11 48 12 58 1
9 5 17 10 17 4 0 5 5 1 11 -3 6 -1 21 5 32 6 12 17 48 24 81 l13 59 80 41 c43
22 81 43 84 46 13 13 70 40 70 34 0 -4 7 1 15 12 8 10 15 16 15 11 0 -4 18 4
40 18 22 14 44 25 49 25 5 0 14 7 21 15 7 9 15 13 17 11 3 -2 26 8 51 23 26
15 62 34 80 42 17 7 32 17 32 21 0 4 7 4 17 1 11 -4 14 -3 9 5 -4 7 -1 12 8
12 9 0 16 5 16 12 0 6 3 8 6 5 7 -7 56 17 87 42 9 8 17 10 17 5 0 -5 4 -4 8 1
4 6 33 23 65 39 31 16 60 33 63 37 3 5 10 7 15 4 5 -4 9 -1 9 4 0 6 9 11 20
11 11 0 20 4 20 9 0 5 16 15 35 22 19 7 35 17 35 22 0 4 4 6 9 2 6 -3 14 3 20
12 6 10 11 15 11 11 0 -9 154 72 158 84 2 4 8 6 13 2 5 -3 16 2 25 10 8 9 22
16 30 16 8 0 14 5 14 12 0 6 3 9 6 5 3 -3 24 5 45 19 21 13 43 24 47 24 5 0
19 9 32 20 13 12 29 19 36 16 7 -3 14 -1 16 3 3 8 133 82 208 119 19 9 38 22
42 27 4 6 8 7 8 3 0 -6 67 28 140 72 8 5 41 22 73 37 31 15 57 32 57 36 0 5 5
5 10 2 6 -3 10 -1 10 5 0 6 4 9 8 6 5 -3 19 4 30 15 12 11 22 17 22 13 0 -4 9
1 21 12 12 10 23 18 25 17 9 -3 44 10 44 17 0 8 59 34 73 31 4 0 7 3 7 9 0 5
7 10 15 10 8 0 15 5 15 12 0 6 3 8 7 5 3 -4 12 -2 19 4 7 6 55 32 107 59 53
26 93 51 90 54 -4 3 0 6 8 6 21 0 69 23 69 33 0 5 4 6 8 3 5 -3 19 4 30 15 12
11 22 17 22 13 0 -3 7 -1 15 6 8 7 15 10 15 6 0 -3 9 2 20 12 12 9 24 17 28
17 12 1 76 36 96 54 16 13 18 13 11 1 -8 -13 -7 -13 9 0 31 25 92 57 110 58 5
0 12 5 15 10 3 5 49 31 101 58 52 27 97 51 100 54 3 4 21 12 40 20 19 8 37 17
40 20 3 4 43 26 90 50 47 24 88 48 91 53 3 5 9 9 12 9 16 0 47 11 47 17 0 3
24 17 53 31 28 13 55 29 59 35 4 5 8 6 8 2 0 -5 12 0 28 11 15 11 37 23 50 26
12 4 22 12 22 17 0 6 4 8 9 4 5 -3 15 1 23 8 15 15 49 31 61 29 4 -1 7 3 7 8
0 6 6 10 14 10 7 0 19 7 26 15 7 9 15 13 18 11 2 -3 22 6 43 20 21 13 39 21
39 18 0 -4 8 0 18 8 9 9 52 34 95 55 42 22 76 41 75 44 -2 2 -1 3 1 2 5 -3
139 66 174 90 15 10 27 15 27 12 0 -3 13 3 29 14 16 12 34 21 40 21 6 0 11 5
11 10 0 6 3 9 8 8 4 -1 27 9 52 22 25 13 48 23 53 22 4 -1 7 2 7 7 0 5 10 13
23 17 12 3 34 15 50 26 15 11 27 16 27 11 0 -4 4 -3 8 2 7 10 49 33 63 34 4 1
14 -16 22 -36z m-5543 -2933 c-8 -5 -11 -12 -7 -16 4 -4 3 -12 -2 -18 -6 -6
-11 -23 -13 -36 -2 -14 -6 -29 -10 -35 -3 -5 -9 -28 -12 -50 -4 -22 -11 -42
-16 -43 -6 -2 -8 -7 -5 -12 3 -4 -2 -26 -10 -49 -8 -23 -12 -41 -10 -41 3 0 0
-12 -6 -27 -6 -16 -12 -35 -15 -43 -2 -8 -8 -33 -14 -55 -6 -22 -12 -46 -12
-52 -1 -7 -5 -13 -9 -13 -4 0 -5 -9 -2 -20 3 -11 1 -20 -4 -20 -5 0 -10 -12
-11 -26 -1 -14 -5 -31 -9 -37 -4 -7 -8 -16 -9 -22 -1 -5 -11 -45 -23 -88 -13
-43 -24 -86 -26 -95 -2 -9 -16 -53 -29 -96 -14 -43 -23 -83 -20 -87 3 -5 1 -9
-4 -9 -8 0 -14 -17 -27 -75 -1 -5 -3 -13 -5 -17 -1 -5 -4 -12 -5 -18 -1 -5 -3
-11 -4 -12 -2 -2 -5 -14 -7 -28 -3 -14 -9 -26 -14 -28 -5 -2 -6 -10 -3 -18 3
-8 0 -21 -7 -29 -7 -9 -10 -18 -7 -22 4 -3 2 -12 -4 -20 -6 -7 -9 -13 -6 -13
4 0 -1 -19 -9 -42 -9 -24 -17 -51 -19 -61 -2 -9 -7 -22 -10 -27 -6 -9 -14 -37
-20 -70 -1 -8 -6 -24 -10 -35 -4 -11 -13 -37 -21 -58 -8 -20 -14 -39 -14 -42
0 -10 -13 -60 -19 -70 -3 -5 -7 -16 -8 -22 -7 -30 -12 -48 -13 -50 -2 -2 -3
-6 -4 -10 -2 -5 -8 -28 -16 -53 -7 -25 -13 -51 -13 -57 0 -7 -4 -13 -8 -13 -4
0 -10 -18 -14 -40 -4 -22 -11 -42 -15 -45 -5 -3 -7 -14 -5 -25 2 -11 -1 -20
-7 -20 -6 0 -8 -3 -5 -6 3 -4 2 -15 -4 -26 -6 -11 -13 -29 -15 -41 -3 -12 -6
-26 -7 -32 -2 -5 -6 -16 -11 -23 -4 -7 -5 -16 -2 -19 3 -3 2 -11 -3 -17 -11
-14 -46 -119 -43 -129 1 -4 -5 -21 -13 -37 -9 -16 -15 -31 -14 -32 1 -2 -21
-75 -49 -163 -29 -88 -53 -164 -53 -170 -1 -5 -8 -25 -16 -43 -7 -18 -11 -37
-8 -42 3 -4 0 -10 -6 -12 -7 -2 -13 -13 -14 -24 -1 -10 -6 -28 -10 -39 -4 -11
-13 -37 -21 -57 -8 -21 -11 -38 -7 -38 4 0 2 -5 -5 -12 -7 -7 -12 -18 -12 -24
0 -7 -5 -25 -12 -41 -6 -15 -10 -34 -9 -40 1 -7 -2 -13 -6 -13 -5 0 -9 -8 -10
-17 -1 -10 -7 -31 -14 -48 -7 -16 -11 -36 -10 -42 1 -7 -3 -13 -9 -13 -5 0 -9
-3 -8 -7 3 -14 -14 -78 -24 -90 -6 -7 -7 -13 -3 -13 4 0 2 -7 -5 -15 -7 -8 -9
-15 -4 -15 4 0 3 -5 -4 -12 -7 -7 -12 -22 -12 -35 0 -13 -5 -23 -12 -23 -6 0
-9 -3 -6 -6 4 -3 -5 -38 -19 -77 -13 -40 -26 -79 -28 -87 -2 -8 -11 -32 -19
-52 -9 -21 -14 -38 -12 -38 3 0 -6 -25 -19 -55 -14 -30 -22 -55 -19 -55 4 0 0
-7 -7 -17 -8 -9 -13 -18 -12 -19 5 -8 -10 -64 -17 -64 -5 0 -7 -8 -5 -17 1
-10 -1 -22 -5 -28 -6 -8 -39 -98 -45 -125 -1 -3 -4 -12 -8 -20 -3 -8 -24 -69
-47 -135 -22 -66 -43 -127 -47 -135 -3 -8 -7 -17 -8 -20 -8 -32 -30 -88 -39
-99 -9 -12 -8 -13 4 -6 12 7 13 6 4 -6 -13 -16 -39 -90 -36 -101 1 -5 -3 -8
-9 -8 -6 0 -9 -7 -5 -15 3 -8 1 -15 -4 -15 -6 0 -9 -3 -9 -7 4 -19 -15 -73
-24 -73 -6 0 -8 -3 -4 -6 3 -4 -1 -23 -9 -43 -9 -20 -17 -43 -19 -51 -8 -33
-67 -196 -75 -205 -5 -5 -9 -14 -9 -20 -2 -20 -19 -71 -41 -125 -12 -30 -22
-57 -22 -60 -1 -7 -5 -18 -19 -55 -7 -16 -13 -36 -15 -43 -1 -8 -6 -21 -10
-30 -4 -9 -8 -21 -10 -27 -1 -5 -8 -23 -15 -40 -11 -28 -15 -38 -22 -68 -2 -6
-11 -30 -21 -52 -9 -21 -18 -46 -20 -55 -9 -38 -19 -60 -27 -60 -4 0 -6 -9 -4
-20 2 -11 -1 -20 -6 -20 -6 0 -8 -4 -4 -9 3 -5 1 -12 -5 -16 -5 -3 -10 -12
-10 -20 0 -8 -5 -26 -12 -42 -13 -33 -12 -30 -22 -65 -5 -16 -12 -28 -17 -28
-5 0 -6 -7 -3 -15 4 -8 2 -15 -4 -15 -5 0 -9 -8 -9 -17 0 -28 -14 -63 -25 -63
-5 0 -6 -5 -3 -10 4 -6 1 -18 -7 -27 -7 -9 -12 -19 -12 -22 1 -3 -2 -16 -7
-29 -5 -13 -9 -29 -9 -37 0 -8 -4 -16 -9 -20 -5 -3 -12 -19 -16 -35 -4 -17
-12 -30 -18 -30 -8 0 -8 -3 1 -9 11 -6 10 -11 -3 -24 -9 -9 -14 -21 -10 -26 3
-5 0 -13 -6 -16 -5 -4 -8 -13 -5 -21 3 -8 -1 -14 -10 -14 -8 0 -12 -4 -9 -10
3 -5 -1 -24 -9 -42 -8 -18 -25 -62 -37 -98 -12 -36 -26 -70 -30 -75 -4 -6 -10
-24 -13 -40 -3 -15 -9 -31 -13 -34 -4 -3 -9 -13 -11 -21 -3 -16 -66 -191 -82
-227 -33 -77 -43 -107 -41 -120 1 -7 -3 -13 -9 -13 -5 0 -10 -7 -10 -15 0 -9
-11 -41 -24 -73 -33 -82 -39 -96 -42 -107 -1 -5 -8 -23 -15 -40 -7 -16 -12
-33 -11 -38 1 -4 -2 -7 -8 -7 -5 0 -7 -7 -4 -15 4 -8 1 -15 -6 -15 -7 0 -10
-8 -7 -20 3 -11 1 -20 -3 -20 -5 0 -14 -17 -21 -37 -7 -21 -19 -54 -27 -73 -9
-19 -16 -38 -16 -42 -1 -3 -4 -9 -8 -13 -4 -4 -4 -13 -1 -21 3 -8 1 -14 -4
-14 -6 0 -16 -19 -23 -42 -8 -24 -18 -49 -24 -57 -6 -8 -10 -17 -10 -20 1 -3
-3 -17 -8 -31 -6 -14 -11 -29 -12 -35 -2 -5 -9 -23 -16 -40 -7 -16 -13 -33
-12 -37 1 -5 -3 -8 -9 -8 -5 0 -7 -4 -4 -10 3 -5 -1 -20 -9 -32 -8 -13 -16
-27 -17 -33 -3 -15 -10 -36 -30 -84 -10 -24 -16 -47 -13 -52 3 -5 1 -9 -3 -9
-5 0 -21 -34 -37 -75 -16 -41 -32 -75 -36 -75 -4 0 -22 42 -40 92 -17 51 -36
102 -41 113 -12 28 -53 138 -55 150 -1 6 -8 24 -15 40 -6 17 -13 36 -15 43 -1
8 -6 21 -10 30 -4 9 -8 20 -9 25 -2 4 -4 9 -5 12 -1 3 -3 8 -5 13 -4 14 -17
47 -31 80 -8 18 -12 38 -9 43 4 5 2 9 -3 9 -8 0 -13 11 -27 63 -2 4 -4 9 -5
12 -1 3 -3 8 -5 13 -1 4 -5 16 -9 27 -55 143 -71 192 -68 208 1 4 -2 7 -6 7
-8 0 -36 83 -32 96 1 4 -2 10 -7 13 -10 6 -38 91 -35 104 1 4 -2 7 -6 7 -5 0
-9 6 -10 13 -1 12 -36 117 -49 147 -3 8 -5 19 -4 24 1 5 -2 12 -6 15 -4 3 -19
38 -31 76 -13 39 -26 77 -29 85 -4 8 -7 17 -8 20 -1 3 -5 14 -9 25 -4 11 -13
34 -19 50 -6 17 -12 35 -13 42 -1 7 -9 26 -17 43 -9 17 -12 28 -7 25 4 -3 0
13 -11 34 -10 22 -19 44 -19 49 0 5 -8 27 -17 48 -9 22 -17 44 -18 49 -1 6 -3
12 -4 15 -2 3 -4 14 -6 25 -2 11 -8 21 -13 23 -6 2 -7 12 -4 24 3 14 1 19 -6
14 -7 -4 -10 1 -7 14 2 11 -1 20 -7 20 -6 0 -9 3 -5 6 3 4 0 19 -9 35 -8 16
-12 29 -8 29 4 0 1 7 -6 15 -6 8 -9 19 -5 25 3 5 1 10 -5 10 -6 0 -9 4 -5 9 3
5 1 12 -5 16 -5 3 -10 17 -10 31 0 13 -4 24 -10 24 -5 0 -10 7 -10 16 0 16
-70 226 -92 274 -6 14 -12 32 -14 40 -9 51 -24 90 -34 90 -4 0 -6 9 -3 20 3
12 0 20 -6 20 -7 0 -10 4 -7 8 3 5 -1 20 -9 35 -8 15 -12 27 -10 27 3 0 -8 36
-24 79 -16 44 -27 82 -23 85 3 3 0 6 -7 6 -6 0 -11 6 -10 13 1 6 -3 24 -9 39
-6 15 -19 53 -28 85 -9 32 -21 61 -26 64 -5 3 -9 9 -8 13 2 10 -12 69 -21 86
-7 13 -50 141 -55 163 -1 4 -2 8 -4 10 -1 1 -3 9 -5 17 -2 8 -20 62 -40 120
-20 58 -38 112 -40 120 -2 8 -4 16 -4 18 -1 1 -1 5 -2 10 -1 4 -6 16 -12 27
-6 11 -10 24 -9 29 2 4 -3 14 -9 22 -7 8 -9 17 -6 21 4 3 2 12 -3 19 -6 6 -12
20 -14 30 -8 39 -11 49 -16 54 -7 6 -33 89 -36 111 0 9 -5 23 -10 30 -5 8 -9
16 -10 19 0 3 -3 12 -6 20 -3 8 -11 33 -17 55 -7 22 -16 49 -21 60 -8 19 -18
57 -20 80 -1 6 -8 17 -16 26 -8 9 -12 18 -9 21 3 2 -7 38 -21 79 -14 41 -27
81 -28 89 -1 9 -5 21 -10 28 -4 6 -9 20 -11 29 -2 10 -14 52 -28 93 -14 41
-27 84 -29 95 -2 11 -6 23 -11 26 -4 3 -9 16 -12 30 -6 35 -68 223 -74 229 -3
3 -7 16 -9 30 -1 14 -3 31 -4 38 -1 6 -5 12 -10 12 -5 0 -8 6 -7 13 1 6 -1 19
-4 27 -13 32 -50 156 -50 167 0 7 -3 13 -7 13 -4 0 -7 6 -8 13 -2 24 -8 47
-15 53 -4 4 -7 17 -7 29 0 12 -3 25 -7 29 -5 4 -8 11 -9 14 0 4 -8 34 -19 67
-27 87 -27 93 -5 105 11 6 20 7 20 3 0 -4 4 -3 8 2 7 10 60 40 176 99 33 17
63 34 66 37 3 4 15 9 27 13 13 4 29 13 35 19 13 12 99 58 278 149 47 24 87 46
90 49 3 3 28 16 55 29 28 13 52 27 55 31 3 3 28 17 55 29 28 12 53 28 57 34 4
6 8 7 8 3 0 -5 12 0 28 11 15 10 42 25 60 33 17 8 32 18 32 22 0 5 5 5 10 2 6
-3 13 1 16 9 3 9 10 13 16 10 5 -3 17 0 26 8 30 24 99 58 106 51 3 -3 6 -2 6
3 0 5 17 18 38 29 20 10 49 27 64 37 14 10 33 18 42 18 9 0 16 5 16 11 0 5 5
7 10 4 6 -3 10 -1 10 5 0 6 5 8 10 5 6 -3 10 -1 10 4 0 6 7 11 15 11 8 0 15 5
15 11 0 5 5 7 10 4 6 -3 10 -1 10 5 0 6 4 9 10 5 5 -3 18 3 29 14 11 11 22 17
25 14 3 -3 12 2 21 11 9 9 21 14 26 11 5 -4 9 -2 9 4 0 5 16 15 35 22 19 7 35
17 35 21 0 4 7 8 16 8 8 0 22 7 31 15 8 8 18 13 23 10 4 -3 11 2 14 11 3 8 10
13 15 10 5 -3 14 1 21 9 7 8 16 13 20 10 5 -3 11 -1 15 5 3 5 23 17 43 27 20
9 49 25 65 35 15 11 27 16 27 11 0 -4 4 -2 9 5 4 7 14 14 22 15 8 2 30 13 49
27 18 13 30 17 25 9 -5 -9 -1 -8 12 4 11 9 25 17 31 17 7 0 12 3 12 8 0 4 24
18 53 32 28 13 55 28 58 33 3 5 8 8 10 7 11 -5 57 24 52 33 -3 6 -1 7 5 3 10
-6 65 17 82 34 3 3 23 14 45 25 22 11 61 32 88 47 26 15 47 25 47 22 0 -3 7 2
16 10 8 9 19 14 24 11 5 -3 10 -1 12 3 4 11 98 62 113 62 8 0 15 4 17 8 4 10
178 104 178 96 0 -2 10 4 22 15 11 11 25 18 30 15 4 -3 8 -1 8 3 0 5 19 18 43
28 23 10 59 29 80 42 20 13 37 20 37 16 0 -5 4 -3 8 2 4 6 25 19 47 30 22 11
48 26 58 34 9 8 17 10 17 5 0 -5 4 -4 8 1 4 6 27 20 52 33 25 13 72 38 105 56
33 19 63 32 68 29 4 -2 7 3 7 12 0 9 5 13 11 9 6 -3 14 -3 18 2 3 5 32 22 64
39 31 16 57 33 57 37 0 4 7 5 15 2 8 -4 15 -1 15 6 0 6 4 9 9 5 6 -3 14 3 20
12 6 10 11 15 11 11 0 -9 154 73 158 84 2 4 8 6 13 2 5 -3 9 0 9 5 0 6 3 10 8
10 20 -3 32 2 26 13 -4 6 -3 8 4 4 6 -3 13 -2 17 4 4 6 10 8 14 6 4 -3 18 4
29 15 12 11 22 17 22 15 0 -3 22 7 48 23 27 16 59 32 70 36 12 3 22 11 22 16
0 5 3 8 8 7 11 -2 45 14 66 31 10 9 19 14 20 13 3 -8 56 22 56 31 0 5 7 7 15
3 8 -3 15 -1 15 4 0 6 5 10 11 10 6 0 25 10 42 22 17 12 38 23 46 25 8 1 18 8
22 15 5 7 9 10 9 5 0 -7 26 7 150 77 43 24 106 39 70 16z"/>
</g>
</svg>
